<?xml version="1.0" encoding="UTF-8" standalone="no"?>
<!-- Created with Inkscape (http://www.inkscape.org/) -->

<svg
   xmlns:dc="http://purl.org/dc/elements/1.1/"
   xmlns:cc="http://creativecommons.org/ns#"
   xmlns:rdf="http://www.w3.org/1999/02/22-rdf-syntax-ns#"
   xmlns:svg="http://www.w3.org/2000/svg"
   xmlns="http://www.w3.org/2000/svg"
   xmlns:xlink="http://www.w3.org/1999/xlink"
   xmlns:sodipodi="http://sodipodi.sourceforge.net/DTD/sodipodi-0.dtd"
   xmlns:inkscape="http://www.inkscape.org/namespaces/inkscape"
   width="140.81468mm"
   height="126.64462mm"
   viewBox="0 0 498.94966 448.74076"
   id="svg2"
   version="1.1"
   inkscape:version="0.91 r13725"
   sodipodi:docname="band_mix.svg">
  <sodipodi:namedview
     id="base"
     pagecolor="#ffffff"
     bordercolor="#666666"
     borderopacity="1.0"
     inkscape:pageopacity="0.0"
     inkscape:pageshadow="2"
     inkscape:zoom="1.4"
     inkscape:cx="239.45813"
     inkscape:cy="191.09286"
     inkscape:document-units="px"
     inkscape:current-layer="layer1"
     showgrid="false"
     fit-margin-top="0"
     fit-margin-left="0"
     fit-margin-right="0"
     fit-margin-bottom="0"
     inkscape:window-width="1278"
     inkscape:window-height="1003"
     inkscape:window-x="640"
     inkscape:window-y="0"
     inkscape:window-maximized="0" />
  <defs
     id="defs4">
    <marker
       inkscape:stockid="Arrow1Mend"
       orient="auto"
       refY="0.0"
       refX="0.0"
       id="Arrow1Mend"
       style="overflow:visible;"
       inkscape:isstock="true">
      <path
         id="path4666"
         d="M 0.0,0.0 L 5.0,-5.0 L -12.5,0.0 L 5.0,5.0 L 0.0,0.0 z "
         style="fill-rule:evenodd;stroke:#000000;stroke-width:1pt;stroke-opacity:1;fill:#000000;fill-opacity:1"
         transform="scale(0.4) rotate(180) translate(10,0)" />
    </marker>
    <marker
       inkscape:stockid="Arrow1Mstart"
       orient="auto"
       refY="0.0"
       refX="0.0"
       id="Arrow1Mstart"
       style="overflow:visible"
       inkscape:isstock="true">
      <path
         id="path4663"
         d="M 0.0,0.0 L 5.0,-5.0 L -12.5,0.0 L 5.0,5.0 L 0.0,0.0 z "
         style="fill-rule:evenodd;stroke:#000000;stroke-width:1pt;stroke-opacity:1;fill:#000000;fill-opacity:1"
         transform="scale(0.4) translate(10,0)" />
    </marker>
    <linearGradient
       id="linearGradient4091"
       y2="415.04999"
       gradientUnits="userSpaceOnUse"
       x2="155.72"
       gradientTransform="matrix(1,0,0,-1,-18,678.03)"
       y1="373.07999"
       x1="154.67">
      <stop
         id="stop9974"
         stop-color="#FFF"
         stop-opacity=".082353"
         offset="0" />
      <stop
         id="stop9976"
         stop-color="#FFF"
         stop-opacity=".88627"
         offset=".48605" />
      <stop
         id="stop9978"
         stop-color="#FFF"
         stop-opacity=".082353"
         offset="1" />
    </linearGradient>
    <linearGradient
       id="linearGradient4089"
       y2="964.72998"
       gradientUnits="userSpaceOnUse"
       x2="837.84003"
       gradientTransform="matrix(-1.018,0,0,1.018,919.74,-899.06)"
       y1="947.40002"
       x1="807.75">
      <stop
         id="stop10081"
         stop-color="#5a5a5a"
         offset="0" />
      <stop
         id="stop10083"
         stop-color="#1e1e1e"
         offset="1" />
    </linearGradient>
    <linearGradient
       id="linearGradient4087"
       y2="360.72"
       spreadMethod="reflect"
       gradientUnits="userSpaceOnUse"
       x2="318.98999"
       gradientTransform="matrix(0.21625,-0.12485,-0.12485,-0.21625,129.9,148.39)"
       y1="465.22"
       x1="322.98999">
      <stop
         id="stop4900"
         stop-color="#6d674f"
         offset="0" />
      <stop
         id="stop4902-0"
         stop-color="#BBB"
         offset=".57397" />
      <stop
         id="stop4904-7"
         stop-color="#6d674f"
         offset="1" />
    </linearGradient>
    <linearGradient
       id="linearGradient4085"
       y2="455.22"
       spreadMethod="reflect"
       gradientUnits="userSpaceOnUse"
       x2="314.82999"
       gradientTransform="matrix(0.21625,-0.12485,-0.12485,-0.21625,120.98,154.41)"
       y1="379.72"
       x1="314.82999">
      <stop
         id="stop4056"
         stop-color="#6d674f"
         offset="0" />
      <stop
         id="stop4062"
         stop-color="#BBB"
         offset=".69708" />
      <stop
         id="stop4058"
         stop-color="#6d674f"
         offset="1" />
    </linearGradient>
    <radialGradient
       id="radialGradient4083"
       gradientUnits="userSpaceOnUse"
       cy="435.79999"
       cx="300.67999"
       gradientTransform="matrix(0.26645,-0.15383,-0.15383,-0.26645,133.14,169.15)"
       r="60">
      <stop
         id="stop4824-7"
         stop-color="#4d4d4d"
         offset="0" />
      <stop
         id="stop4826-8"
         stop-color="#4d4d4d"
         stop-opacity="0"
         offset="1" />
    </radialGradient>
    <radialGradient
       id="radialGradient4081"
       gradientUnits="userSpaceOnUse"
       cy="357.89001"
       cx="286.07001"
       gradientTransform="matrix(0.26645,-0.15383,-0.15383,-0.26645,133.14,169.15)"
       r="60">
      <stop
         id="stop4812"
         stop-color="#f9f9f9"
         stop-opacity=".67254"
         offset="0" />
      <stop
         id="stop4814"
         stop-color="#f9f9f9"
         stop-opacity="0"
         offset="1" />
    </radialGradient>
    <linearGradient
       id="linearGradient4079"
       y2="374.97"
       gradientUnits="userSpaceOnUse"
       x2="1257.6"
       gradientTransform="matrix(1.018,0,0,1.018,-1252.1,-294.1)"
       y1="384.48999"
       x1="1257.6">
      <stop
         id="stop10016"
         stop-color="#a0a0a0"
         offset="0" />
      <stop
         id="stop10027"
         stop-color="#c4c4c4"
         offset=".15578" />
      <stop
         id="stop10022"
         stop-color="#b8b8b8"
         offset=".31156" />
      <stop
         id="stop10025"
         stop-color="#ebebeb"
         offset=".94505" />
      <stop
         id="stop10018"
         stop-color="#b6b6b6"
         offset="1" />
    </linearGradient>
    <linearGradient
       id="linearGradient4077"
       y2="998.23999"
       gradientUnits="userSpaceOnUse"
       x2="829.44"
       gradientTransform="matrix(-1.018,0,0,1.018,919.49,-899.06)"
       y1="998.23999"
       x1="819.89001">
      <stop
         id="stop10073"
         stop-color="#cbcbcb"
         offset="0" />
      <stop
         id="stop10075"
         stop-color="#868686"
         offset="1" />
    </linearGradient>
    <filter
       id="filter10101"
       style="color-interpolation-filters:sRGB">
      <feGaussianBlur
         id="feGaussianBlur10103"
         stdDeviation="4.9801895" />
    </filter>
    <filter
       id="filter5184"
       style="color-interpolation-filters:sRGB">
      <feGaussianBlur
         id="feGaussianBlur5186"
         stdDeviation="2.3536243" />
    </filter>
    <filter
       id="filter10006"
       style="color-interpolation-filters:sRGB">
      <feGaussianBlur
         id="feGaussianBlur10008"
         stdDeviation="1.2652113" />
    </filter>
    <linearGradient
       y2="360.72"
       x2="318.98999"
       y1="465.22"
       x1="322.98999"
       spreadMethod="reflect"
       gradientTransform="matrix(0.21625,-0.12485,-0.12485,-0.21625,348.05656,605.39225)"
       gradientUnits="userSpaceOnUse"
       id="linearGradient3268"
       xlink:href="#linearGradient4087"
       inkscape:collect="always" />
    <radialGradient
       r="60"
       cy="435.79999"
       cx="300.67999"
       gradientTransform="matrix(0.26645,-0.15383,-0.15383,-0.26645,351.29656,626.15225)"
       gradientUnits="userSpaceOnUse"
       id="radialGradient3276"
       xlink:href="#radialGradient4083"
       inkscape:collect="always" />
    <radialGradient
       r="60"
       cy="357.89001"
       cx="286.07001"
       gradientTransform="matrix(0.26645,-0.15383,-0.15383,-0.26645,351.29656,626.15225)"
       gradientUnits="userSpaceOnUse"
       id="radialGradient3279"
       xlink:href="#radialGradient4081"
       inkscape:collect="always" />
    <filter
       inkscape:label="Air Spray"
       inkscape:menu="Scatter"
       inkscape:menu-tooltip="Convert to small scattered particles with some thickness"
       width="2"
       height="2"
       y="-0.5"
       x="-0.5"
       style="color-interpolation-filters:sRGB;"
       id="filter4999">
      <feGaussianBlur
         stdDeviation="0.01"
         result="result1"
         id="feGaussianBlur5001" />
      <feBlend
         in2="result1"
         result="fbSourceGraphic"
         mode="multiply"
         id="feBlend5003" />
      <feTurbulence
         baseFrequency="0.8"
         type="fractalNoise"
         seed="0"
         numOctaves="3"
         result="result3"
         id="feTurbulence5005" />
      <feDisplacementMap
         in="fbSourceGraphic"
         xChannelSelector="R"
         yChannelSelector="G"
         scale="50"
         result="result2"
         in2="result3"
         id="feDisplacementMap5007" />
      <feMorphology
         radius="1"
         operator="dilate"
         result="result4"
         id="feMorphology5009" />
      <feBlend
         mode="screen"
         in2="result2"
         id="feBlend5011" />
    </filter>
    <clipPath
       id="clipPath">
      <rect
         style="opacity:0.9;fill:#e6e6e6;stroke:#000000;stroke-width:3;stroke-miterlimit:4;stroke-dasharray:none;stroke-opacity:1"
         id="rect5021"
         width="160.71428"
         height="119.28571"
         x="-26.506407"
         y="574.71863" />
    </clipPath>
    <clipPath
       id="clipPathI">
      <rect
         y="356.14722"
         x="49.207878"
         height="165"
         width="397.14285"
         id="rect5207"
         style="opacity:0.9;fill:#e6e6e6;stroke:#000000;stroke-width:3;stroke-miterlimit:4;stroke-dasharray:none;stroke-opacity:1" />
    </clipPath>
    <clipPath
       id="clipPathJ">
      <rect
         y="356.14722"
         x="49.207878"
         height="165"
         width="397.14285"
         id="rect5294"
         style="opacity:0.9;fill:#e6e6e6;stroke:#000000;stroke-width:3;stroke-miterlimit:4;stroke-dasharray:none;stroke-opacity:1" />
    </clipPath>
    <clipPath
       id="clipPathh">
      <rect
         y="356.14722"
         x="49.207878"
         height="165"
         width="397.14285"
         id="rect5446"
         style="opacity:0.9;fill:#e6e6e6;stroke:#000000;stroke-width:3;stroke-miterlimit:4;stroke-dasharray:none;stroke-opacity:1" />
    </clipPath>
    <clipPath
       id="clipPathG">
      <rect
         y="356.14722"
         x="49.207878"
         height="165"
         width="397.14285"
         id="rect5602"
         style="opacity:0.9;fill:#e6e6e6;stroke:#000000;stroke-width:3;stroke-miterlimit:4;stroke-dasharray:none;stroke-opacity:1" />
    </clipPath>
    <clipPath
       id="clipPathP">
      <rect
         y="356.14722"
         x="49.207878"
         height="165"
         width="397.14285"
         id="rect5762"
         style="opacity:0.9;fill:#e6e6e6;stroke:#000000;stroke-width:3;stroke-miterlimit:4;stroke-dasharray:none;stroke-opacity:1" />
    </clipPath>
    <clipPath
       id="clipPathf">
      <rect
         y="356.14722"
         x="49.207878"
         height="165"
         width="397.14285"
         id="rect5926"
         style="opacity:0.9;fill:#e6e6e6;stroke:#000000;stroke-width:3;stroke-miterlimit:4;stroke-dasharray:none;stroke-opacity:1" />
    </clipPath>
    <clipPath
       id="clipPathc">
      <rect
         y="363.29007"
         x="87.065025"
         height="122.14286"
         width="316.42856"
         id="rect6307"
         style="opacity:0.9;fill:none;fill-opacity:1;stroke:#008000;stroke-width:3;stroke-miterlimit:4;stroke-dasharray:none;stroke-opacity:1" />
    </clipPath>
    <clipPath
       id="clipPathIZ">
      <rect
         y="363.29007"
         x="87.065025"
         height="122.14286"
         width="316.42856"
         id="rect6395"
         style="opacity:0.9;fill:none;fill-opacity:1;stroke:#008000;stroke-width:3;stroke-miterlimit:4;stroke-dasharray:none;stroke-opacity:1" />
    </clipPath>
    <clipPath
       id="clipPath6">
      <rect
         y="363.29007"
         x="87.065025"
         height="122.14286"
         width="316.42856"
         id="rect6573"
         style="opacity:0.9;fill:none;fill-opacity:1;stroke:#008000;stroke-width:3;stroke-miterlimit:4;stroke-dasharray:none;stroke-opacity:1" />
    </clipPath>
    <filter
       inkscape:label="Air Spray"
       inkscape:menu="Scatter"
       inkscape:menu-tooltip="Convert to small scattered particles with some thickness"
       width="2"
       height="2"
       y="-0.5"
       x="-0.5"
       style="color-interpolation-filters:sRGB;"
       id="filter6849">
      <feGaussianBlur
         stdDeviation="0.01"
         result="result1"
         id="feGaussianBlur6851" />
      <feBlend
         in2="result1"
         result="fbSourceGraphic"
         mode="multiply"
         id="feBlend6853" />
      <feTurbulence
         baseFrequency="0.8"
         type="fractalNoise"
         seed="0"
         numOctaves="3"
         result="result3"
         id="feTurbulence6855" />
      <feDisplacementMap
         in="fbSourceGraphic"
         xChannelSelector="R"
         yChannelSelector="G"
         scale="50"
         result="result2"
         in2="result3"
         id="feDisplacementMap6857" />
      <feMorphology
         radius="1"
         operator="dilate"
         result="result4"
         id="feMorphology6859" />
      <feBlend
         mode="screen"
         in2="result2"
         id="feBlend6861" />
    </filter>
  </defs>
  <metadata
     id="metadata7">
    <rdf:RDF>
      <cc:Work
         rdf:about="">
        <dc:format>image/svg+xml</dc:format>
        <dc:type
           rdf:resource="http://purl.org/dc/dcmitype/StillImage" />
        <dc:title></dc:title>
      </cc:Work>
    </rdf:RDF>
  </metadata>
  <g
     inkscape:label="Layer 1"
     inkscape:groupmode="layer"
     id="layer1"
     transform="translate(-1.350736,-308.12074)">
    <g
       transform="translate(-348.84726,-9.1478635)"
       id="schlagzeug">
      <path
         style="clip-rule:evenodd;fill-rule:evenodd"
         inkscape:connector-curvature="0"
         id="path14624"
         d="m 581.459,383.5381 c 0,-0.4434 0,-0.8887 0,-1.3389 0.3877,-0.1806 0.6279,-0.3193 0.8564,-0.666 -0.2226,-1.0185 -0.4902,-1.7656 -0.3779,-2.7617 -0.0674,-0.0332 -0.1338,-0.0674 -0.1934,-0.0986 -0.7285,0.0263 -0.7519,0.1806 -1.1445,0.4765 -0.1572,0.3535 -0.3174,0.6973 -0.4775,1.0528 -0.0313,0 -0.0625,0 -0.0948,0 -0.0283,-0.2559 -0.0615,-0.5098 -0.0957,-0.7647 -0.3486,0 -0.6992,0 -1.0459,0 -0.0361,0.0654 -0.0625,0.124 -0.0976,0.1895 0,0.2871 0,0.5752 0,0.8642 -0.8457,-0.7578 0.9101,-4.8847 1.5263,-5.3457 0.253,0.0889 0.5049,0.1895 0.7588,0.2891 0.0684,0.5078 0.1338,1.0117 0.1963,1.5195 0.0576,0.0303 0.127,0.0674 0.1895,0.0996 0.1572,0 0.3134,0 0.4785,0 0,-0.4502 0.0439,-1.1006 0.2832,-1.3418 0.9824,-1.1152 1.0244,-0.2119 0.9531,-2.6611 0.8994,-3.5693 -0.6855,-10.7598 0.5713,-13.5449 0.2549,0 0.5089,0 0.7656,0 -0.0341,5.3418 -0.0654,10.6836 -0.0996,16.0175 0.3545,0.0997 0.7022,0.1993 1.0537,0.2881 -0.0849,0.7569 -0.3789,3.3848 -0.1006,4.1026 -0.2509,0.1894 -0.5048,0.3769 -0.7597,0.5771 0.0322,0.0547 0.0635,0.1201 0.0918,0.1875 0.2256,0.0635 0.4453,0.124 0.6679,0.1895 0,0.0312 0,0.0654 0,0.0966 -0.3134,0.2803 -0.4111,0.2647 -0.4765,0.8565 0.5918,0.624 0.6338,0.6816 0.5771,1.9082 6.795,-0.126 16.4756,1.1416 21.7383,2.957 1.8477,0.6309 4.2656,0.9043 5.0547,2.5723 0.0342,0.2861 0.0674,0.5742 0.0956,0.8555 -3.7852,3.0908 -9.7734,2.6054 -15.9247,3.5332 -1.6113,0.2392 -8.2949,-0.3457 -8.8721,0.4765 0.2178,0.6416 0.1153,1.2998 -0.2793,1.6192 -0.417,0.8232 -1.4199,0.8125 -2.0019,1.4306 -1.792,3.626 -0.4219,9.2637 -1.1475,14.2022 -0.2197,8.8681 -0.4453,17.7441 -0.6709,26.6045 0.4776,0.0576 0.6162,0.1308 0.8623,0.3877 0,0.5088 0,1.0117 0,1.5195 1.0821,-0.0576 1.6065,0.1318 2.1924,0.7656 -0.0283,0.9532 -0.0625,1.9063 -0.0967,2.8604 -0.665,0.1308 -1.3359,0.2539 -2.0039,0.3847 -0.003,1.6114 -0.3613,2.961 -0.7617,4.0059 -0.0587,1.8057 -0.127,3.6211 -0.1924,5.4307 -0.0625,3.9804 -0.123,7.9492 -0.1904,11.9189 -0.0293,2.6377 -0.0576,5.2764 -0.0928,7.9131 0.6367,0.165 1.2715,0.3232 1.9053,0.4775 0.6787,0.5342 2.835,7.6993 3.4346,9.2559 1.1084,2.8603 1.8701,6.8789 3.623,9.2451 0.2149,0.2803 0.2959,2.5654 0.2891,2.5733 2.7763,4.9169 4.1416,11.0869 5.9072,16.6904 0.3564,0.1914 0.7012,0.3828 1.0536,0.5683 0.2247,0.3545 0.8115,5.1299 0.7617,5.2452 -0.8828,2.0966 -4.0244,0.9453 -5.2451,0.0966 0.0322,-0.7538 0.2676,-0.8212 0.4766,-1.2382 0.2675,-0.5342 -0.4473,-1.5303 -0.1905,-2.3868 0.212,-0.7128 0.7969,-0.5654 0.8623,-1.6191 -0.8945,-2.8926 -1.7851,-5.7852 -2.6728,-8.6768 -1.0537,-2.83 -2.0986,-5.6543 -3.1494,-8.4912 -0.1572,0.0655 -0.3194,0.1309 -0.4766,0.1963 -0.1963,0.1895 -0.1308,0.0918 -0.1894,0.4766 1.9716,8.9287 3.9384,17.8623 5.9091,26.7959 3.1827,1.876 6.3604,3.7461 9.5362,5.6221 1.0342,0.666 1.7783,2.2011 2.7685,2.7666 0.6055,0.3457 1.2325,0.0429 1.7159,0.3828 0.6113,0.4248 0.7988,1.0898 1.2392,1.7158 0.8281,0.7627 1.6514,1.5224 2.4785,2.2851 -0.0312,0.2217 -0.0674,0.4424 -0.0937,0.6729 -0.6709,1.5146 -3.8223,3.2559 -5.7246,1.6191 -0.1153,-0.1046 -1.9102,-3.3369 -1.9102,-3.3369 0.0342,-0.4179 0.0684,-0.8291 0.1016,-1.2402 -0.4864,-1.3311 -7.7012,-5.6143 -9.3448,-6.2949 0.1543,1.0527 0.3155,2.0957 0.4747,3.1484 0.6503,0.0791 0.9296,0.3623 1.1425,0.8545 0.3584,0.7803 -0.0713,1.6758 0,2.1953 0.1573,1.1152 1.0528,1.8965 1.0528,3.7207 -1.6602,1.0449 -4.5948,0.79 -5.0537,-1.1426 -0.3086,-1.289 0.3271,-1.955 0.288,-2.7695 -0.0263,-0.4687 -0.6494,-1.2812 -0.288,-2.0957 0.1543,-0.3535 0.5293,-0.5508 0.9541,-0.666 -0.1914,-1.5264 -0.3829,-3.0567 -0.5772,-4.5762 -2.2842,-1.3076 -4.5732,-2.6074 -6.8613,-3.9141 -0.0674,0.0333 -0.1279,0.0684 -0.1914,0.0987 0.0156,0.7402 -0.0264,1.9736 -0.4766,2.2851 -1.8066,0.8467 -3.9922,1.1104 -6.1035,1.5303 -1.2109,0.0313 -2.418,0.0576 -3.6211,0.0889 -3.626,2.5146 -7.2432,5.0224 -10.8721,7.5371 -0.3886,0.4043 0.0518,0.6504 -0.3828,0.9531 -0.8906,0.124 -1.7783,0.2549 -2.6699,0.3779 -0.251,0.2227 -0.5059,0.4424 -0.7598,0.6729 -0.6992,0.126 -1.4013,0.2461 -2.1006,0.3809 -0.1269,0.2851 -0.2548,0.5732 -0.3828,0.8535 -0.5732,0.0234 -0.7734,0.1385 -0.8535,-0.4746 -0.3535,0.1308 -0.6992,0.2519 -1.0508,0.3828 -0.1582,-0.0996 -0.3193,-0.1885 -0.4795,-0.2881 0.0674,-0.7393 -0.1855,-1.5928 -1.0478,-1.8125 -0.1543,2.8086 -1.2031,6.2451 -1.8135,8.6767 -0.8984,3.5997 -1.3359,7.3985 -2.4756,10.6836 -0.5449,1.5714 0.5635,2.4102 0.666,3.9063 0.0469,0.6318 -0.4335,1.7187 -0.5712,2.0039 0.2041,0.9697 0.4345,2.5566 -0.1895,3.626 -0.0995,0.0322 -0.1934,0.0654 -0.287,0.0887 -1.334,-0.3271 -2.5449,-0.2783 -3.4346,-0.9531 -0.2002,-1.9238 0.8008,-3.2383 1.1446,-4.2891 -0.0625,-0.2539 -0.126,-0.5107 -0.1934,-0.7656 0.2266,-0.665 0.4502,-1.3301 0.6699,-1.998 0.3164,-0.1523 0.6358,-0.3203 0.9531,-0.4745 1.4307,-7.0606 2.8614,-14.1133 4.2969,-21.1709 -0.2881,-0.1563 -0.5791,-0.3145 -0.8672,-0.4766 0.2862,-2.0644 -4.9248,-6.9326 -6.3847,-8.0059 -1.3018,-0.0996 -2.6035,-0.1894 -3.9112,-0.289 0.0391,1.2012 -0.2334,1.793 -0.665,2.4814 -1.0273,0.2461 -2.3115,0.1573 -3.1494,-0.2851 -0.0606,-1.2764 -0.124,-2.549 -0.1895,-3.8156 0.1895,-0.9218 0.3828,-1.8486 0.5723,-2.7714 -1.2139,-0.5967 -1.1504,-2.17 -1.8125,-3.337 -3.3984,1.9073 -6.8018,3.8165 -10.1973,5.7207 -2.7978,1.6612 -5.6582,2.8692 -8.0176,4.8682 0.503,0.9541 -1.0058,4.0928 -1.8066,4.4766 -0.2538,0.0342 -0.5117,0.0664 -0.7646,0.0996 0.0332,0.4433 0.0673,0.8887 0.0966,1.334 0.2256,0.0312 0.4454,0.0634 0.668,0.0966 0.1563,0.9883 0.3174,1.9737 0.4766,2.9581 0.7441,0.0586 0.958,0.2568 1.2422,0.7578 0.0605,-0.0352 0.123,-0.0557 0.1884,-0.0918 -0.005,-1.3047 0.3174,-2.2276 0.8545,-2.9561 0.1905,0 0.3877,0 0.5733,0 0.25,0.1631 0.3281,0.2051 0.4765,0.4746 0.3526,2.0616 0.7002,4.1377 1.0508,6.1963 -0.4873,0.3379 -0.8359,0.6426 -1.5273,0.2881 -0.4395,-0.5967 -0.8907,-1.208 -1.333,-1.8076 -0.0342,0 -0.0635,0 -0.0948,0 -0.3379,0.6387 -1.372,0.9219 -2.1953,1.043 0.1289,0.956 0.2539,1.9072 0.3819,2.8603 1.3623,0.3037 6.9502,13.6133 -1.0498,11.8262 -0.794,-0.1786 -1.6983,-0.8545 -2.0049,-1.5254 -0.0303,-2.6973 -0.0596,-5.4014 -0.0908,-8.1045 0.2666,-1.3232 1.5556,-3.2647 0.2851,-4.669 -0.3144,-0.0693 -0.6357,-0.1308 -0.9531,-0.2001 -0.3174,-2.0918 -0.6377,-4.1885 -0.957,-6.2862 0.1943,-0.1631 0.3857,-0.3203 0.5742,-0.4775 -0.543,-3.6885 -1.0801,-7.3779 -1.6192,-11.0615 -0.2363,-1.084 -0.7968,-1.5713 -0.8623,-3.0489 -0.9951,0.7305 -1.3281,0.0498 -1.7138,0.2774 -2.6055,3.5947 -5.2159,7.1865 -7.8194,10.7783 -0.6845,1.9697 -2.5722,5.0557 -5.2422,5.25 -0.834,-0.5918 -1.3183,0 -1.9101,0.8564 -1.2686,1.0508 -2.5381,2.0928 -3.8115,3.1465 -3.7178,2.6573 -10.7608,7.0948 -15.8321,8.0059 -0.1162,2.6387 -5.2578,3.7813 -5.7217,1.1505 -4.0419,0.6103 -9.5566,1.3545 -14.1113,0.4775 -2.2549,-0.5088 -4.5098,-1.0195 -6.7715,-1.5283 -0.9795,-0.3789 -1.9677,-0.7647 -2.9502,-1.1416 -0.165,0.1543 -0.3213,0.3086 -0.4785,0.4766 -0.9512,0 -1.9062,0 -2.8642,0 -0.6631,-0.668 -1.334,-1.3418 -1.9981,-2.0059 -0.2236,-0.2891 -0.1416,-0.8809 -0.3828,-1.1426 -1.1777,-0.6347 -2.3525,-1.2734 -3.5322,-1.9082 -3.3682,-2.1377 -6.8448,-4.6758 -9.5332,-7.5361 -0.9903,-1.0518 -4.4873,-5.793 -5.5313,-6.0995 -1.6953,0.6416 -3.0986,-1.75 -3.3374,-3.335 -0.0991,-0.707 0.5029,-0.9853 0.3823,-1.3418 -0.2089,-0.6582 -2.2548,-4.8486 -2.6669,-5.0537 -0.7305,2.6387 -1.4649,5.2773 -2.1949,7.915 0.4024,0.1875 0.3858,0.1875 0.377,0.7647 -0.4087,1.7822 -0.8198,3.5576 -1.2339,5.3418 -0.5391,-0.0332 -1.0825,-0.0654 -1.6245,-0.0967 0,0.0635 0,0.1309 0,0.1895 -1.1294,2.3076 0.1577,2.7187 -0.2852,5.3418 -0.2231,1.4277 -0.4482,2.8603 -0.6679,4.288 -0.1807,0.9844 0.009,2.1875 -0.4766,2.8604 -1.4878,2.0703 -5.874,0.009 -6.0103,-2.1943 0.9873,-2.1856 1.9722,-4.3809 2.9605,-6.5743 0.4458,-0.7988 1.2236,-1.2265 1.7163,-1.9062 0.2251,-0.8311 0.4448,-1.6543 0.668,-2.4815 -1.1773,-1.121 -2.877,-1.9023 -3.7207,-3.3378 0.0942,-0.1885 0.1938,-0.3799 0.2881,-0.5684 0.8803,0.3105 2.5361,0.9609 3.0517,0.3799 0.5879,-0.4697 0.8467,-2.0567 1.0464,-2.8614 0.2534,-0.0683 0.5073,-0.1308 0.7617,-0.1884 0.7652,-2.6074 1.5303,-5.2188 2.2925,-7.8253 -2.5405,0.3428 -8.2788,4.4453 -10.4946,5.8183 -0.0269,0.2881 -0.0606,0.5772 -0.0894,0.8643 -2.1382,-0.0254 -3.4922,0.4775 -4.9595,0.666 -0.5713,0 -1.1474,0 -1.7133,0 -0.7496,0.2119 -1.1763,0.7315 -2.1958,0.8535 -0.2515,-0.4345 -0.6807,-0.3193 -1.147,-0.5654 -0.1026,-1.0273 -6.94,-4.291 -8.2969,-4.4902 -1.2373,2.1279 -2.479,4.2656 -3.7124,6.3974 -2.7798,4.4854 -5.5596,9.0645 -7.9145,13.8223 -0.8965,1.7998 -0.3145,1.9805 0,3.4267 0,0.0332 0,0.0684 0,0.0987 0,0 -1.1319,4.7929 -1.2417,4.958 -1.4541,0.623 -4.2837,0.2539 -4.9595,-1.2344 -0.0894,-0.3115 2.3183,-6.0224 2.5727,-6.207 0.479,-0.0567 0.9532,-0.1201 1.4302,-0.1875 0.938,-3.6475 3.377,-7.0742 5.2446,-10.0108 2.3189,-3.6396 4.2862,-7.5683 6.3926,-11.2519 0.5762,-1.0117 0.461,-2.3661 1.0454,-3.3379 0.2881,-0.0313 0.5713,-0.0635 0.8594,-0.0967 0.7754,-2.1113 2.793,-3.8154 3.2432,-6.0996 -0.8877,-1.4795 -1.6558,-1.6533 -2.96,-2.6699 -0.5029,-0.668 -1.0142,-1.333 -1.5249,-2.0069 -3.5264,2.6729 -7.0557,5.3418 -10.582,8.0147 -0.5342,0.8379 0.3701,1.2383 0.0971,2.1924 -0.1699,0.5762 -0.5576,2.0908 -0.8588,2.5722 -0.7969,0.1006 -1.5879,0.1895 -2.3868,0.2891 -1.1005,-0.2891 -2.2246,-2.1045 -2.2876,-3.4346 0.3482,-0.8076 1.6714,-2.8036 2.4781,-3.1494 0.4458,-0.0547 0.8911,-0.122 1.3418,-0.1875 0.4399,-0.5439 0.8857,-1.0771 1.3281,-1.6201 0.7309,-0.5107 1.4648,-1.0185 2.1958,-1.5273 3.584,-2.6407 7.2256,-5.333 10.7749,-8.1055 1.0483,-0.919 2.0962,-1.8399 3.1465,-2.7607 1.9961,-0.5088 4.0063,-1.0206 6.0049,-1.5303 -0.0943,-9.0225 -0.1885,-18.0557 -0.2832,-27.0821 -3.8506,-0.2226 -6.9864,-2.1269 -9.2481,-4.0009 -0.0366,0 -0.0625,0 -0.0991,0 -0.4741,8.581 -0.9512,17.1611 -1.4277,25.7431 -1.3731,3.6963 -5.7662,5.6582 -7.3433,9.1534 -0.8179,1.8085 0.0337,5.2031 -0.4775,6.3876 -1.2549,0.4502 -2.3868,0.2774 -2.9551,-0.7539 1.0766,-2.1074 1.1845,-5.3945 2.5727,-7.2529 1.4883,-1.9873 6.0572,-5.7988 6.6753,-8.0107 0.5742,-9.5684 1.145,-19.1348 1.7163,-28.7032 -0.7285,-0.288 -1.352,-0.9609 -1.8076,-1.5195 0.0913,-1.0537 0.1885,-2.1074 0.2827,-3.1494 -0.0708,-0.2295 -0.3906,-0.3447 -0.2827,-0.8613 0.1963,-0.9961 0.8462,-1.0694 0.5659,-2.5762 -0.186,0 -0.3774,0 -0.5659,0 -0.1938,0.2256 -0.3852,0.4463 -0.5762,0.668 -0.726,0.009 -1.2656,-0.1328 -1.7163,-0.377 0.0108,-1.1523 0.2124,-2.8447 0.7652,-3.5283 0.4736,0.0576 0.9511,0.126 1.4277,0.1914 0.0996,0.0654 0.1909,0.1221 0.2881,0.1875 0,0.2549 0,0.5117 0,0.7656 0.5737,0 1.1445,0 1.7134,0 1.3857,-4.8808 0.5478,-11.2373 0.8593,-16.7861 0.1465,-2.5928 0.857,-6.4336 0.189,-8.957 -0.6108,0.0156 -1.1636,-0.0147 -1.5249,-0.1963 -0.2676,-1.168 -0.2778,-2.376 0,-3.5254 0.5708,-0.0684 1.1475,-0.124 1.7207,-0.1895 -0.01,-2.2451 0.2334,-4.4062 0.5689,-6.0097 0.2695,-1.2998 -0.5611,-1.8487 -0.5689,-3.1465 0.2544,-0.6367 0.5029,-1.2754 0.7573,-1.9102 0.354,0 0.7022,0 1.0537,0 0.0938,-0.6279 0.1885,-1.2724 0.2852,-1.9072 1.6035,-2.0586 5.064,-1.5996 7.9146,-2.4775 0.06,-7.6875 0.1254,-15.3789 0.1914,-23.0704 -0.9541,-2.2636 -1.9048,-4.5146 -2.8609,-6.7753 -0.4062,-0.4248 -1.1264,-0.2881 -1.4282,-0.8545 -0.3535,-0.9844 -0.7022,-1.9746 -1.0532,-2.96 0.0659,-0.5762 0.126,-1.1426 0.1889,-1.7158 -1.4594,-3.461 -2.9238,-6.9297 -4.3828,-10.3887 -0.666,-0.9209 -1.3364,-1.8506 -2.0044,-2.7715 -0.1255,0 -0.2539,0 -0.3823,0 -0.5527,0.75 -1.3047,1.1114 -2.1875,1.5303 -0.4116,-0.2959 -0.812,-0.4922 -1.0532,-0.9531 -0.1812,-0.4961 0.0498,-0.6426 0.2881,-0.9532 0.9614,-0.3876 1.6738,-0.7968 2.7636,-1.0537 0,-0.124 0,-0.2568 0,-0.3769 -1.6215,-2.0547 -6.6699,-3.2969 -9.1508,-4.6797 -6.5469,-3.6387 -13.2564,-7.4199 -18.4097,-12.4834 -1.8706,-1.8477 -7.231,-6.5732 -3.7178,-10.0186 3.7437,-3.6572 17.5581,-1.0527 22.4077,0.2891 16.5757,4.5859 31.8389,11.0684 44.1519,20.0274 2.4766,1.7919 10.5449,7.5878 9.7217,11.9218 -0.7012,3.7198 -7.71,4.5576 -12.5796,3.7119 -5.8794,-1.0195 -11.2051,-1.8574 -16.4028,-3.4267 -3.6211,-1.208 -7.2466,-2.418 -10.8697,-3.624 0.0938,0.4091 0.1885,0.8203 0.2852,1.2314 -0.1914,0.1963 -0.3877,0.3877 -0.5738,0.5772 1.4937,3.4345 2.9922,6.8613 4.4776,10.2978 1.3672,-0.0762 4.789,-1.1338 6.1094,-0.1914 0.3696,0.2314 0.4902,0.5186 0.5713,1.0449 -2.0201,0.0244 -3.875,-0.2041 -5.6275,0.3858 0.0132,0.4199 0.042,0.5351 0.1885,0.7656 0,0.0566 0,0.1221 0,0.1875 1.3335,-0.041 2.251,0.1152 3.0522,0.4765 0,-0.1298 0,-0.2529 0,-0.3867 1.0166,0.041 2.8926,0.2071 3.3404,-0.4746 0.4458,-0.7617 0.5395,-1.957 1.1474,-2.5732 0.3145,0.166 0.6314,0.3203 0.9507,0.4746 0.1499,0.707 0.1729,1.4336 0.0923,2.1963 -0.3355,-0.0322 -1.2998,-0.1309 -1.5225,0.2871 0.063,0 0.126,0 0.1914,0 0.542,0.0693 1.0796,0.126 1.6192,0.1894 0.0439,1.3907 0.1963,3.2061 -0.4771,4.5791 -0.0342,0 -0.0625,0 -0.0971,0 -1.378,-0.2304 -1.2232,-1.8496 -2.0015,-2.6718 -0.1592,0 -0.3193,0 -0.4766,0 0,0.0673 0,0.1308 0,0.1884 -0.33,0.8233 -0.6631,1.4414 -0.9511,2.0069 -0.7862,1.5615 0.7231,3.1064 -0.7647,4.6689 -0.0444,2.3574 3.5498,10.7364 4.6709,12.3028 0.6841,0.9531 1.6582,2.0722 1.813,3.5263 -0.3223,0.5186 -0.5977,0.8057 -0.9512,1.2412 -0.7412,0.084 -1.4751,0.0655 -2.0957,-0.0996 -0.6919,-1.5117 -2.2295,-7.5185 -3.437,-8.1006 -0.0342,5.4395 -0.0659,10.8731 -0.0942,16.3057 1.9043,-0.0674 3.8144,-0.125 5.7187,-0.1904 -0.1128,-1.9815 1.9966,-7.6924 3.0547,-8.4912 -0.1333,-0.0899 -0.2563,-0.1885 -0.3823,-0.2774 0.2905,-0.5615 0.5293,-0.9277 0.9541,-1.3408 1.6782,0.1641 3.3691,0.3223 5.0503,0.4766 0.3384,-0.8399 0.8203,-1.5127 1.6245,-1.9082 0.5684,0.165 1.1455,0.3193 1.7139,0.4765 0,0.7656 0,1.5303 0,2.2959 0.7861,0.0313 1.978,0.007 2.3838,0.4766 0.351,-0.1065 0.2836,-0.084 0.477,-0.2891 -0.126,-0.2217 -0.2549,-0.4443 -0.3828,-0.664 0.2334,-0.5508 0.3828,-0.7344 1.1445,-0.7657 0.0654,-0.4111 0.1309,-0.83 0.1944,-1.2412 -0.3506,-0.1894 -0.7027,-0.3779 -1.0503,-0.5742 0.0337,-0.2549 0.0625,-0.501 0.0942,-0.7578 0.7808,-0.8223 1.9624,-0.9951 3.6235,-0.9531 -0.0297,0.1572 -0.0634,0.3144 -0.0932,0.4765 0.1552,0 0.313,0 0.48,0 0.0546,-0.2617 0.003,-0.1386 0.1855,-0.1963 -0.0654,0.2227 -0.1274,0.4512 -0.1855,0.6729 -0.5582,0.831 -2.0821,1.5039 -1.4332,2.9512 0.9385,0.0254 1.9732,0.1826 2.5757,-0.0889 0.0918,-0.5098 0.1856,-1.0205 0.2862,-1.5303 0.4267,-0.1054 0.7373,-0.0996 0.9531,-0.3779 0.9531,-2.1123 1.6455,-4.957 1.999,-7.3457 0.2354,-1.6035 -0.414,-1.7608 0.7627,-3.1494 0.332,0.2939 0.2373,0.2304 0.8584,0.1963 0,-0.1963 0,-0.3848 0,-0.5733 1.2012,-0.791 3.2432,-1.3154 3.7197,-2.8613 1.6084,0.2041 2.877,-1.3652 4.2901,-1.9072 1.873,-0.377 3.7549,-0.7647 5.6269,-1.1426 3.2403,0.0586 6.4864,0.124 9.7276,0.1894 10.1728,2.3575 25.5781,3.8877 30.0361,11.6299 0.2334,0.4112 1.0928,6.1211 0.9541,6.7715 -0.2422,1.1104 -0.7783,1.8809 -1.0518,3.2481 -0.3837,0.0791 -0.4814,0.0791 -0.6611,0.3779 -0.5351,1.0693 -0.1289,2.0967 -0.1943,3.0498 -0.2256,1.207 -0.4483,2.415 -0.6699,3.623 0.7373,0.1495 1.5029,0.3799 2.0058,0.7657 0,0.122 0,0.2529 0,0.3769 -0.9043,-0.165 -1.6533,-0.6084 -2.5781,-0.4746 0,0.0977 0,0.1895 0,0.2852 0.8594,0.2236 1.7158,0.4433 2.5781,0.6679 0,0.2207 0,0.4405 0,0.666 -0.5185,1.4122 -0.8984,2.4551 -2.5781,1.7159 -0.6387,3.3349 -1.2705,6.6728 -1.9072,10.0107 -0.1436,1.2334 0.3086,2.3106 0,3.7256 -0.2246,1.0166 -1.1036,2.5879 -1.5245,3.5264 -0.0312,0.2851 -0.0654,0.5732 -0.0966,0.8623 -0.3487,0.0224 -0.6993,0.0566 -1.0459,0.0888 -0.8985,0.2793 -1.9336,0.9366 -2.9571,1.2412 -1.5742,0.4698 -3.1045,0.3848 -4.957,0.6661 -9.1465,1.3906 -18.206,-1.628 -25.2685,-2.9502 0,0.0547 0,0.123 0,0.1855 -0.3819,8.4522 -0.7647,16.9092 -1.1475,25.3652 0.7021,-0.1884 1.084,-0.7646 1.7187,-1.0507 6.2608,-2.795 10.0332,-8.6377 16.9717,-10.8662 -0.0957,-0.3858 -0.1914,-0.7627 -0.289,-1.1504 0.8486,-0.8545 2.5703,-1.2813 4.2031,-1.042 0.4521,-1.877 3.7109,-2.6729 5.8125,-2.0967 0.126,0.2461 0.2549,0.501 0.3799,0.7539 1.8115,-0.2764 3.6269,-0.5654 5.4336,-0.8535 3.1494,-0.542 6.33,0.3701 8.7734,0.2881 3.1387,-0.1075 6.1211,1.75 8.9658,2.0957 1.0694,-1.5108 4.208,-0.377 4.6738,0.9531 0,0.3789 0,0.7656 0,1.1426 4.5557,1.4306 10.7286,6.5029 13.6329,9.8222 0.9072,1.0352 3.2109,4.503 4.2929,4.9571 0.7403,-0.7002 2.6162,0.9765 2.8574,1.5273 0.0948,0.7002 0.1915,1.3985 0.2911,2.0957 -0.2256,0.2569 -0.4512,0.5088 -0.6719,0.7656 0,0.0879 3.2314,6.7139 3.624,7.7256 1.1445,2.9522 1.6856,6.2881 2.2901,9.7217 0.0947,1.5303 0.1914,3.0498 0.2813,4.5791 2.207,0.3281 1.7627,3.9776 0.6699,5.4336 -0.3808,0.1631 -0.7597,0.3203 -1.1455,0.4766 0,0.0996 0,0.1953 0,0.289 -0.6308,2.5772 -0.5,4.543 -1.331,6.959 -0.9219,2.3516 -1.8457,4.7022 -2.7666,7.0615 2.8906,-0.664 5.5048,-3.3681 8.6777,-4.291 -0.1387,-0.7803 -0.0713,-1.6191 0.7627,-1.3408 0.4961,0.1484 0.5723,0.3301 0.665,0.8643 1.5293,-0.4532 3.0547,-0.8955 4.5762,-1.3409 0.1104,-4.7011 1.1123,-10.9619 0,-14.875 -0.4873,-1.7265 0.3252,-3.6005 -0.9512,-4.4804 -0.0224,0.4599 -0.0859,0.5996 -0.5703,0.8564 -1.7451,-0.3799 -2.7012,-1.6533 -3.4297,-3.0498 0.0293,-0.0654 0.0576,-0.1221 0.0928,-0.1914 1.3818,0.0264 2.1025,0.6846 3.4277,0.5772 0.4034,-1.3311 1.4854,-1.002 2.6739,-1.2422 0.1562,-5.2452 0.3164,-10.4952 0.4755,-15.7393 -0.665,0 -1.3359,0 -2.0039,0 0,0.0674 0,0.1309 0,0.1983 -0.5839,1.5195 -0.4687,3.9121 -1.0419,5.2451 -2.9043,0.9697 -1.8946,-2.8184 -2.8672,-5.0557 -0.4131,-0.1309 -0.8252,-0.2568 -1.2364,-0.3877 0.0352,-1.9082 -0.5527,-2.5469 -0.7646,-3.9043 0.1572,-0.1885 0.3223,-0.3857 0.4765,-0.5771 -1.2285,-3.4659 -3.872,-5.5616 -5.0537,-9.2422 -2.7138,-0.1153 -4.3388,-1.1446 -6.6718,-1.5303 -1.4053,-0.2305 -3.5108,0.0889 -4.292,-0.7646 -0.5967,-0.6495 -0.1416,-2.2999 -0.1006,-3.3379 -0.7246,-0.1231 -1.458,-0.251 -2.1914,-0.377 0,0.2539 0,0.5088 0,0.7656 0.7334,0.1153 1.498,0.3184 1.3379,0.8536 -2.4258,0.2148 -4.1592,-0.8379 -5.8184,-1.7188 -0.5498,0.1992 -1.1113,0.75 -1.6211,0.9541 -1.3056,0.5342 -3.668,-1.1006 -4.5752,-1.6191 0.1934,-0.9854 -1.123,-4.085 -0.5732,-5.9112 0.4316,-1.4345 2.2763,-1.3203 2.7666,-2.4804 -0.0674,0 -0.1289,0 -0.1885,0 -0.9228,-0.1543 -1.8467,-0.3125 -2.7715,-0.4766 -4.0508,-0.9463 -9.3349,-1.9238 -9.0576,-6.3857 -1.2178,-0.503 -0.542,-1.167 -0.9531,-2.294 -0.2852,-0.2773 -0.5713,-0.5664 -0.8545,-0.8535 -0.0293,-0.6816 -0.008,-1.3994 0.1914,-1.8086 0.4746,0.008 0.3848,0.082 0.6631,-0.0986 -0.9248,-2.0869 -0.7813,-8.5655 -0.4766,-11.3496 0.0938,-0.8487 0.2373,-3.1602 -0.1865,-3.6192 -0.6074,-0.1328 -1.21,-0.2529 -1.8164,-0.3838 -0.3584,-1.3164 -0.2168,-3.0029 0.4775,-4.0039 0.5059,0.0664 1.0166,0.1231 1.5254,0.1885 0.0703,-2.1377 0.4639,-4.2148 0.5762,-6.5752 -0.2881,-0.1621 -0.5762,-0.3203 -0.8652,-0.4766 0.3642,-1.5459 0.33,-2.9502 1.913,-3.2461 0.9825,-3.749 8.1582,-4.8183 12.3936,-5.622 7.2529,-1.3809 20.6191,-0.7969 26.5107,1.7099 2.4463,1.0518 4.9991,3.0733 7.0528,4.6768 0.747,0.5742 1.709,1.6846 2.0049,2.6699 0,0.7334 0,1.461 0,2.1953 0.1386,0.2559 0.6171,0.4082 0.5732,0.9541 -0.0449,0.4922 -0.5498,0.6963 -0.6709,1.043 -0.4033,1.1758 0.005,4.8408 0.5732,5.1553 1.1436,0.0547 2.2911,0.1211 3.4327,0.1885 0,-0.1338 0,-0.2569 0,-0.377 -0.6133,0.0205 -1.2618,0.0156 -1.6192,-0.1992 0.6533,0.0303 1.3106,0.1299 1.6192,-0.0899 -0.0284,-0.3564 -0.0625,-0.6992 -0.0948,-1.0527 -0.6572,-0.3115 -1.207,-0.5605 -1.5244,-1.2412 0.1524,-0.2393 0.1182,-0.2315 0.3828,-0.3779 0.6162,-0.1407 2.6758,0.2148 3.2373,0.5654 0.0323,0.2891 0.0655,0.5762 0.0977,0.8652 0.6807,0.1573 1.0273,0.5235 1.4307,0.9541 -0.0293,0.1543 -0.0635,0.3194 -0.0977,0.4766 -0.0889,0.0303 -0.1904,0.0654 -0.2852,0.0996 -0.5449,0.1045 -0.7754,-0.1523 -1.333,-0.2891 -0.0664,0.1553 -0.1289,0.3096 -0.1884,0.4776 0.1543,0.5654 0.3173,1.1416 0.4736,1.7148 0.9219,0.0244 1.8418,0.0586 2.7646,0.0928 0.0352,-0.9697 0.4834,-1.4649 0.9532,-1.9961 0.7968,0.0205 1.5927,0.0576 2.3818,0.0879 0.0332,0.543 0.0674,1.0859 0.0995,1.6191 1.7783,0.0635 3.5566,0.1309 5.3399,0.1963 1.4609,1.1035 1.6386,5.8701 2.9531,7.5303 0.0312,0 0.0654,0 0.0976,0 -0.1601,-5.1455 -0.3193,-10.2988 -0.4736,-15.4434 -0.165,-1.3662 0.2744,-5.6308 -0.3828,-6.2988 -0.8496,-0.6807 -2.0381,-0.9014 -2.1943,-2.29 0.831,-0.8721 0.2979,-3.1407 0.8583,-4.4795 0.2627,-0.627 0.8038,-0.8877 1.2383,-1.3311 -0.3183,-10.5215 -0.6357,-21.043 -0.9531,-31.5635 -0.2988,-1.8545 -0.7538,-4.0185 -0.7627,-6.1962 -1.9961,-0.3692 -1.6582,-6.1485 -1.3359,-8.1133 -8.8321,0.2412 -28.4942,2.7451 -33.3741,-2.3838 0.0948,-2.9668 4.2754,-3.7207 6.5782,-4.5694 5.3056,-1.9648 11.8418,-2.9501 17.1679,-4.2001 2.8633,-0.6729 4.2071,-0.0723 6.5762,-0.9532 -0.1055,-1.2656 -0.5918,-3.6963 0.2852,-4.289 0.6084,-0.0996 1.2099,-0.1885 1.8134,-0.2871 -0.0742,-0.7901 -0.0712,-1.169 0,-1.8086 0.2247,0.0888 0.4483,0.1894 0.668,0.288 0.0977,0.4082 0.1904,0.8204 0.2852,1.2315 0.1601,-0.0264 0.3154,-0.0576 0.4804,-0.0889 0,-0.4121 0,-0.834 0,-1.2412 0.0303,0 0.0586,0 0.0879,0 -0.0332,0.5654 -0.0703,0.8428 0.2881,1.0498 0.5303,-0.789 2.2451,0 2.6758,0.2803 0.4413,1.2256 0.8096,2.542 0.8535,4.292 1.6065,-0.4961 3.1885,-0.1416 5.1504,-0.3779 6.5859,-0.7803 23.0049,-1.4151 26.8926,2.7617 -0.1016,3.0078 -3.7393,3.7881 -6.0098,4.6728 -5.418,2.1231 -11.8808,3.0762 -18.3076,4.291 -2.5753,0.3204 -5.1505,0.6348 -7.7256,0.9551 0,0.0313 0,0.0674 0,0.0987 0.1104,0.6552 0.7422,4.2578 1.0508,4.956 0.1572,-0.0986 0.3164,-0.1875 0.4766,-0.2871 0.1884,0.1309 0.3769,0.2539 0.5712,0.3848 -0.4423,1.2002 -0.8906,2.4082 -1.3359,3.6181 0.0342,1.4932 0.0684,2.9922 0.0996,4.4854 -0.1943,0.0576 -0.3887,0.125 -0.5752,0.1914 0.3809,10.8955 0.7637,21.8047 1.1436,32.7031 1.8808,0.4512 3.8213,-0.0674 5.0517,0.8643 0.1612,0.5664 0.3233,1.1406 0.4786,1.709 5.2021,-0.1084 10.7421,-0.5508 16.4033,-0.5684 z M 411.25,402.042 c -0.2544,0.0576 -0.5093,0.1201 -0.7627,0.1885 0,0.1211 0,0.2519 0,0.376 0.4585,0.6894 1.6504,2.3007 0.9531,3.7236 -0.2412,0.4844 -0.5937,0.4277 -0.7641,1.1416 0.0644,0 0.1298,0 0.1933,0 0.7632,0.4277 4.9014,0.4277 4.8599,-0.2871 2.3843,0.1562 4.768,0.3213 7.1523,0.4765 0,-0.0312 0,-0.0654 0,-0.0966 -0.7412,-1.0645 -1.1001,-1.4649 -1.2397,-3.0498 -1.3989,-0.2227 -2.7949,-0.4454 -4.1963,-0.6651 -0.1519,-0.5117 -0.3203,-1.0215 -0.4746,-1.5303 -0.7652,-0.0888 -1.5298,-0.1894 -2.2866,-0.2773 -0.0552,0.5391 -0.1363,0.5557 -0.3824,0.8535 -0.9882,-0.0996 -1.9731,-0.1885 -2.958,-0.289 -0.0317,-0.1875 -0.06,-0.376 -0.0942,-0.5645 z m 131.9717,5.6191 c -0.0967,0.5762 -0.1944,1.1426 -0.2832,1.7188 -1.5508,0.3223 -3.8721,0.2119 -5.4405,0.2851 -0.289,0.7422 -0.831,1.1456 -1.2402,1.8106 -0.3525,0.5732 -0.0283,1.7842 -0.2832,2.293 -0.2041,0.1308 -0.2305,0.2138 -0.3867,0.3769 -0.0576,-0.0312 -0.1201,-0.0654 -0.1856,-0.0976 0.007,-1.3223 -0.6572,-2.3018 -1.4316,-2.8604 0.0342,1.3965 0.0664,2.8027 0.0996,4.2002 5.6699,-0.0322 10.8643,0.7725 16.0186,1.041 0,-0.0879 0,-0.1875 0,-0.2764 -1.8741,-2.3769 -1.9229,-3.7568 -0.1944,-6.2958 -0.039,-0.4219 -0.1357,-1.003 -0.3828,-1.2422 -0.6572,-0.0957 -2.5956,0.0918 -3.8115,0.0976 -0.0342,-0.0976 -0.0654,-0.1933 -0.0938,-0.2851 0.0938,-0.1895 0.1905,-0.3858 0.2832,-0.5772 -0.0302,-0.0312 -0.0634,-0.0654 -0.0927,-0.0889 -0.8623,-0.0341 -1.7159,-0.0654 -2.5752,-0.0996 z m 14.3955,4.003 c -0.0674,2.5381 -2.0371,3.4765 -1.7119,5.9179 1.0136,0.3155 2.0322,0.6338 3.0517,0.9541 0.4551,-0.3925 0.6065,-0.5341 1.2363,-0.5771 -0.0292,-1.9717 -0.0615,-3.9443 -0.0947,-5.9102 -0.7803,0.085 -1.6269,0.0743 -2.289,-0.0996 -0.0616,-0.0967 -0.127,-0.1875 -0.1924,-0.2851 z m -170.7793,11.4404 c -0.0967,-2.3682 0.2832,-4.1992 0.2905,-7.0518 -0.416,-0.1884 -0.8325,-0.3779 -1.2417,-0.5742 0.063,2.5459 0.126,5.085 0.189,7.626 0.0654,0.0322 0.1284,0.0654 0.1884,0.1006 0.1939,-0.0352 0.3853,-0.0684 0.5738,-0.1006 z m -0.8565,3.8223 c -0.2231,7.1181 -0.4482,14.2343 -0.6709,21.3554 -0.1728,1.1817 -0.1806,6.2686 0.1939,6.6719 0.1284,-0.0918 0.2539,-0.1914 0.3823,-0.2803 0.2886,-9.2529 0.5713,-18.5009 0.8545,-27.747 -0.249,0 -0.5029,0 -0.7598,0 z m 118.6211,10.9648 c 0.0342,0.4111 0.0625,0.8223 0.0967,1.2422 1.8027,-0.0264 2.041,0.7305 3.4297,0.9531 0.0654,-0.6416 0.1279,-1.2734 0.1885,-1.9072 -0.0283,-0.0684 -0.0606,-0.1318 -0.0889,-0.1992 -1.2842,0.3564 -2.1963,-0.0313 -3.626,-0.0889 z m 54.6377,0.5654 c -0.8584,0.6924 -3.9101,1.1377 -4.3838,1.8194 0,0.1562 0,0.3115 0,0.4765 1.3379,-0.1318 3.3428,-0.6836 4.7657,-1.1425 0,-0.3877 0,-0.7657 0,-1.1534 -0.128,0 -0.2539,0 -0.3819,0 z m -32.7099,5.5332 c -0.0596,-0.665 -0.1202,-1.33 -0.1875,-1.9961 -4.1006,-0.2246 -8.1934,-0.5839 -11.918,-1.1523 -0.0313,0.0654 -0.0664,0.1309 -0.0967,0.1992 -0.1307,0.5069 -0.4033,1.6758 0,2.0957 1.4922,0.251 2.9902,0.5078 4.4815,0.7617 0.7793,-0.1699 1.3515,-0.7617 2.5781,-0.5732 1.7139,0.2207 3.4297,0.4424 5.1426,0.665 z m 20.6972,-2.6718 c -1.1738,0.0986 -2.3545,0.1992 -3.5293,0.2881 -3.79,0.6074 -8.9638,0.3876 -13.542,0.3876 1.5391,3.4268 9.7696,1.0274 12.8711,0.377 1.5625,-0.3193 3.1153,-0.6338 4.6778,-0.9541 0,-0.0303 0,-0.0654 0,-0.0986 -0.1612,0 -0.3203,0 -0.4776,0 z m 12.0127,0 c -1.0478,0.1992 -2.0986,0.3877 -3.1445,0.5761 0.0918,0.7803 0.5537,1.5928 1.0459,2.0039 0.1592,-0.0312 0.3193,-0.0654 0.4756,-0.0966 0.0244,-0.4297 0.0683,-0.5186 0.1924,-0.7647 0.5722,-0.0898 1.1474,-0.1885 1.7158,-0.2881 0.0312,-0.4433 0.0654,-0.8877 0.0967,-1.332 -0.128,-0.0303 -0.2539,-0.0654 -0.3819,-0.0986 z m -31.6562,0.6757 c -0.0674,0.0215 -0.1309,0.0577 -0.1944,0.0889 0.1631,0.6992 0.3174,1.3975 0.4795,2.0967 0.6533,0.041 0.9942,0.1152 1.4278,-0.0899 0,-0.0996 0,-0.1914 0,-0.288 -0.4745,-0.3955 -0.8164,-1.0957 -1.0469,-1.7188 -0.2197,-0.0312 -0.4443,-0.0674 -0.666,-0.0889 z m 23.7412,1.1426 c -1.5567,0.2881 -3.1153,0.5655 -4.6738,0.8535 -1.1739,1.5928 -2.3506,3.1807 -3.5264,4.7686 -1.4619,1.8701 -2.9229,3.7568 -4.3877,5.6269 -0.2197,7.1836 -0.4463,14.3672 -0.666,21.5518 0.8379,0.1152 1.334,0.6748 1.7187,1.2412 -0.3154,2.4893 -0.6806,4.6602 -1.625,6.6758 -0.0263,2.6377 -0.0595,5.2764 -0.0937,7.9141 -0.2959,1.7324 -0.4121,5.457 0.3769,6.5732 4.1348,-0.0166 8.2139,3.3135 10.876,5.0566 1.0859,0.7149 2.6797,1.1416 3.4316,2.1954 0.0596,-0.0342 0.125,-0.0684 0.1934,-0.1006 1.7451,-2.5059 3.4932,-5.0215 5.2432,-7.5293 0.0654,-5.2764 0.122,-10.5528 0.1894,-15.8291 0.0635,-3.8789 0.127,-7.7598 0.1865,-11.6367 0.7188,-7.1358 0.4952,-18.0772 -1.0419,-24.7891 -0.1309,0 -0.2569,0 -0.3848,0 -0.0918,0.0635 -0.1924,0.1308 -0.2832,0.1885 -0.2266,0.7656 -0.4502,1.5273 -0.6709,2.2929 -0.3799,0 -0.7598,0 -1.1426,0 -0.2245,-1.6845 -0.4453,-3.372 -0.666,-5.0537 -1.0234,0.1719 -1.9697,0.0625 -3.0537,0 z m -8.1035,1.5196 c -1.208,0.2871 -2.418,0.5761 -3.626,0.8642 0.0625,1.624 -0.7803,3.5733 -0.2822,4.7647 0.1884,-0.1543 0.3789,-0.3223 0.5713,-0.4766 1.2705,-1.6846 2.5429,-3.3721 3.8134,-5.0527 0,-0.0342 0,-0.0694 0,-0.0996 -0.1591,0 -0.3164,0 -0.4765,0 z m -16.4024,1.8154 c -0.7079,-0.0498 -1.7422,-0.3535 -2.0967,-0.0977 0.417,1.001 1.0713,3.2442 2.0967,3.626 0,-0.0937 0,-0.1914 0,-0.29 -0.3193,-0.9942 -0.0781,-2.2041 0,-3.2383 z m 0.7647,0.0918 c -0.6231,1.2724 -0.0186,3.9375 0.5703,4.7724 0.415,0.2832 0.8262,0.5684 1.2402,0.8575 0.416,0.5576 0.1807,1.6006 0.8594,1.9052 -0.0166,-0.7812 -0.2959,-6.8437 -0.3848,-6.9589 -0.7109,0.0625 -1.4521,-0.3956 -2.2851,-0.5762 z m 7.5293,4.5791 c -0.1075,0.6465 -0.0205,1.4512 -0.669,1.3359 -0.2451,-0.039 -0.0478,0.0918 -0.2851,-0.0967 -0.2217,-0.3798 -0.4414,-0.7627 -0.668,-1.1455 -0.1543,0.0371 -0.3135,0.0694 -0.4736,0.0996 -0.4375,0.9698 -0.8233,4.292 -0.2881,5.4336 0.6074,0.0342 1.208,0.0655 1.8154,0.0889 1.0342,-0.4814 1.5352,-4.3057 0.8574,-5.7158 -0.0957,0 -0.1924,0 -0.289,0 z m -136.7325,20.1172 c 0.0894,8.581 0.1885,17.1718 0.2833,25.7509 1.8676,-0.1728 5.3471,0.3565 6.2929,1.5225 -0.0342,0.1309 -0.0654,0.2539 -0.0971,0.3858 -0.4429,0.0302 -0.8907,0.0566 -1.3365,0.0878 0.0347,0.0684 0.0659,0.1338 0.1001,0.1993 0.7935,0.1894 1.5874,0.3769 2.3838,0.5664 0.0606,-0.0323 0.1235,-0.0635 0.189,-0.0899 0.7993,-9.0898 1.5879,-18.1894 2.3843,-27.2715 -0.0318,-0.0634 -0.0684,-0.1308 -0.0972,-0.1943 -0.6636,0.005 -2.0171,-0.0186 -2.3818,-0.3828 0.2231,-0.0303 0.4428,-0.0625 0.6679,-0.0967 -0.0317,-0.123 -0.0625,-0.2539 -0.0996,-0.3779 -1.7602,-0.0342 -3.9346,-0.7988 -5.4307,-0.1885 0.0289,0.0557 0.063,0.124 0.0918,0.1885 0.1626,0.0351 0.3194,0.0654 0.4771,0.0918 0,0.0322 0,0.0635 0,0.0976 -1.1426,-0.0976 -2.2876,-0.1894 -3.4273,-0.289 z m 11.8189,0.957 c -0.9224,9.3105 -1.8428,18.6318 -2.7647,27.9434 1.1456,0.4453 2.2872,0.8857 3.4346,1.33 0,-0.1308 0,-0.2529 0,-0.3769 -0.9248,-1.8418 0.1416,-3.083 1.2363,-4.2012 0.1949,-1.5283 0.3858,-3.0498 0.5772,-4.5781 0.5757,-3.0645 1.1318,-6.2451 2.1929,-8.957 0.8535,-2.0372 1.7129,-4.0704 2.5698,-6.1094 0.5845,-1.1426 1.918,-2.3418 2.0976,-3.7139 -0.4165,-0.459 -0.5136,-0.5986 -0.5708,-1.2402 -2.9775,0.1387 -5.6679,0.0498 -8.7729,-0.0967 z m 169.2573,5.627 c -1.1611,0.009 -1.6875,-0.2959 -2.5732,-0.4766 -0.0342,0.0898 -0.0674,0.1894 -0.1016,0.2881 -0.1201,0.6006 -0.2549,1.208 -0.3779,1.8076 -0.7227,0.1269 -1.0059,-0.2617 -1.333,-0.0967 -2.8321,1.627 -4.3018,5.2344 -6.1065,7.9141 -1.748,2.6045 -3.4961,5.2197 -5.2431,7.8232 0,0.0342 0,0.0586 0,0.0918 4.7138,0.0654 9.8994,0.9531 15.0664,0.4766 0.2236,-5.9414 0.4443,-11.8858 0.6689,-17.8281 z m 3.4346,2.5732 c -0.1338,4.9873 -0.2568,9.9785 -0.3877,14.9668 0.0332,0 0.0654,0 0.0996,0 1.6113,-0.4111 3.6885,-0.3379 4.8594,-1.4297 -1.4483,-4.5771 -1.1035,-10.9726 -4.5713,-13.5371 z m 4.8623,16.0176 c -0.2539,0.1572 -0.5107,0.3222 -0.7656,0.4775 0.0322,1.086 0.0605,2.1631 0.0957,3.2481 0.5761,0.1562 1.1445,0.3115 1.7148,0.4765 -0.0303,-0.0996 -0.0654,-0.1992 -0.0937,-0.2881 0.008,-0.7959 -0.3692,-3.2646 -0.9512,-3.914 z m -24.794,1.2422 c -0.0263,1.4228 -0.3642,6.8164 0.1885,7.4394 0.2227,0.2549 0.4453,0.5088 0.6709,0.7637 1.6328,-0.5332 7.5821,2.3096 9.4356,2.7627 0.2578,-3.4375 0.5136,-6.8633 0.7685,-10.3008 -2.1299,-0.2539 -4.2617,-0.5088 -6.3926,-0.7656 -0.5371,0.1006 -1.08,0.1894 -1.621,0.289 -1.0166,-0.0634 -2.0313,-0.1211 -3.0499,-0.1884 z m 19.7383,3.1494 c -1.2216,1.0527 -0.6787,7.6855 -1.3369,9.5332 0.7656,-0.0342 1.2842,0.0488 1.7197,0.2881 0.1348,0.4531 0.2041,0.8877 0.0928,1.4277 -0.5283,0.1484 -2.9551,0.3135 -3.2422,0.7646 1.6846,1.0118 3.3692,2.0333 5.0557,3.0489 0.0312,0 0.0654,0 0.0918,0 0,-3.3994 0,-6.8028 0,-10.2061 0.0478,-0.9775 0.2754,-2.6035 -0.0918,-3.4267 -0.7656,-0.4766 -1.5303,-0.9532 -2.2891,-1.4297 z m -190.7148,0.0888 c -1.2393,0.6748 -2.02,0.6807 -3.335,1.4297 -1.331,1.085 -2.667,2.1641 -4.0034,3.2491 0,0.0312 0,0.0625 0,0.0888 1.1084,1.4883 2.9341,2.0069 3.7178,3.8145 0.186,-0.1319 0.0605,-0.01 0.1968,-0.1885 1.9853,-2.0488 2.9443,-5.2295 3.8115,-8.3936 -0.1309,0 -0.2539,0 -0.3877,0 z m 183.5644,7.8252 c 0.8565,-0.0322 1.7139,-0.0654 2.5752,-0.0976 -0.042,-1.084 0.2803,-1.5215 0.4766,-2.0957 0.3193,-0.9639 -0.5889,-4.0029 0.666,-4.3906 -0.0995,-0.5733 -0.3359,-0.9776 -0.8603,-1.1426 -0.6436,-0.1621 -1.7364,0.0732 -2.3838,0.289 -0.1582,2.4727 -0.3135,4.9561 -0.4737,7.4375 z m -36.4277,-6.9609 c -0.127,0.0313 -0.252,0.0566 -0.3828,0.0889 -0.0508,1.08 -0.582,1.0273 -0.8545,1.8183 1.7783,1.3301 1.1475,3.6885 1.8096,6.1963 0.0976,-0.0976 0.1924,-0.1894 0.2851,-0.289 2.2852,-1.003 3.9278,-3.2305 5.3428,-5.1416 0,-0.0694 0,-0.1319 0,-0.2002 -1.832,-1.2647 -3.3818,-2.334 -6.2002,-2.4727 z m -139.5024,0.1885 c -0.2911,0.5605 -0.6368,0.6494 -1.0484,1.0527 0.1553,5.9111 0.3145,11.8184 0.4746,17.7266 0.8726,0.0761 2.4888,0.2402 3.0523,0 0.2617,-1.2969 1.1181,-3.0165 1.4272,-4.1924 0.1914,-1.7158 0.3828,-3.4346 0.5767,-5.1455 0.6001,-2.8584 1.208,-5.7266 1.8076,-8.5879 -2.4126,-0.0147 -3.5762,-0.8301 -6.29,-0.8535 z m 130.728,0 c -0.542,0.5263 -0.2549,1.9228 -0.8555,2.3838 -0.0957,0.0654 -0.1933,0.1308 -0.2871,0.1884 -0.2226,-0.0878 -0.4424,-0.1884 -0.6631,-0.288 -0.2246,-0.5655 -0.4443,-1.1426 -0.6709,-1.708 -1.8613,0.6962 -3.3134,1.7031 -4.9619,2.5722 0.0342,0.0635 0.0654,0.1211 0.1006,0.1895 1.8594,0.6806 3.5791,1.4931 5.1465,2.4834 0.9228,0.666 1.8457,1.33 2.7676,1.9961 0.6386,0.2197 1.6836,-0.0264 2.2841,0.1894 0.0997,-2.1543 0.1944,-4.3183 0.2852,-6.4775 -0.0283,-0.0674 -0.0625,-0.1328 -0.0908,-0.1983 -1.3653,0.1827 -2.2168,-0.1396 -2.667,-1.331 -0.1338,0 -0.2539,0 -0.3877,0 z m 56.6426,0.8535 c -0.3633,1.3682 -0.416,13.3896 0,14.3105 2.0674,1.1729 4.1289,2.3526 6.2011,3.5255 -1.1816,-5.5322 -2.3545,-11.0634 -3.5302,-16.5937 -0.875,-0.4845 -1.3975,-1.1349 -2.6709,-1.2423 z m -179.7442,0.6758 c -0.8276,4.2578 -1.6533,8.5146 -2.4785,12.7724 -0.1103,0.919 0.3667,1.8077 0.2881,2.958 1.0454,-0.2236 8.5298,-4.3076 9.0571,-4.957 0.5264,-1.6582 -0.9477,-6.1377 -1.4277,-8.2002 -2.0776,-0.3799 -3.1724,-2.3271 -5.439,-2.5732 z m -13.3481,0.0888 c -0.5737,0.8233 -0.4141,2.1221 -0.9536,3.1495 -0.899,1.7197 -2.23,3.3437 -3.1465,5.1503 1.3989,2.4112 2.7978,4.8262 4.1943,7.2422 0.0655,0 0.1284,0 0.1885,0 -0.0942,-5.1767 -0.1885,-10.3642 -0.2827,-15.542 z m 153.6147,2.1963 c -0.9511,1.084 -1.9043,2.1612 -2.8584,3.2383 -0.7207,0.5811 -1.7314,1.0996 -2.1933,1.9141 1.2842,-0.2696 6.2197,-3.0254 7.0527,-3.9112 -0.0605,-0.0986 -0.1221,-0.1875 -0.1875,-0.288 -0.6064,-0.3194 -1.208,-0.6338 -1.8135,-0.9532 z m -27.1758,0.7647 c -1.3974,0.8203 -2.7949,1.6513 -4.1972,2.4736 0.0342,0.0654 0.0635,0.1309 0.0947,0.1963 0.3565,0.0576 0.7022,0.123 1.0527,0.1914 0.4922,1.2393 2.3418,3.6201 1.7178,5.0508 -1.1601,-0.0733 -1.7646,-0.7861 -2.7705,-1.0479 0.1309,1.0996 -0.3506,2.2471 -0.2832,3.0469 0.2832,1.3731 0.5703,2.7373 0.8594,4.1026 -0.1602,0.1865 -0.3203,0.3847 -0.4746,0.5742 0.1543,1.3994 0.3144,2.7949 0.4746,4.1913 0.0351,0 0.0625,0 0.0937,0 2.3838,-0.5586 3.6075,-2.211 5.4356,-3.3379 4.0722,-2.2842 8.1416,-4.5762 12.207,-6.8633 0,-0.1523 0,-0.3203 0,-0.4746 -0.8066,-0.1152 -3.9092,-1.126 -4.6758,-1.5303 -0.0234,-0.3701 -0.0742,-0.9297 -0.2832,-1.1426 -2.0693,-2.1767 -4.7978,-2.8994 -7.6318,-4.3877 -0.5869,-0.3036 -0.8545,-0.869 -1.6192,-1.0428 z m 44.4375,2.9502 c -0.3505,0.0312 -0.705,0.0654 -1.0507,0.0967 -0.0303,0.0341 -0.0655,0.0654 -0.0957,0.0996 0,0.1552 0,0.3115 0,0.4765 0.0302,0.0352 0.0654,0.0576 0.0957,0.0918 1.3838,0.0586 2.8642,0.2315 4.292,0.0977 -0.0323,-0.0654 -0.0655,-0.1319 -0.0977,-0.1895 -1.3408,-0.2871 -1.5869,-0.665 -3.1436,-0.6728 z m -15.4482,1.1504 c -2.7334,1.5537 -5.4658,3.1142 -8.2031,4.666 0.0342,0.0683 0.0654,0.1339 0.0996,0.1904 1.207,0.8311 2.416,1.6611 3.6221,2.4815 1.7675,-1.792 2.9931,-4.6504 4.3818,-6.7725 0.1904,-0.2783 0.3457,-0.3955 0.0996,-0.5654 z m 3.9072,0.0908 c -1.3457,2.0859 -6.7109,9.9609 -3.2422,12.5908 0.4952,0.9229 3.8487,4.5381 4.9581,5.0547 0.368,-0.9512 0.8925,-0.7891 1.4316,-1.2393 1.5176,-3.0908 1.6161,-10.6367 1.624,-15.3525 -3.0762,1.0322 -2.6035,1.082 -4.7715,-1.0537 z m -40.9052,4.9629 c 0,-0.4502 0,-0.8965 0,-1.3389 -0.6397,-0.2148 -1.4834,-0.4004 -2.1016,-0.668 0,-0.54 0,-1.082 0,-1.6191 -0.0605,0.0371 -0.123,0.0566 -0.1895,0.0938 -0.2871,1.3056 -0.5722,2.6044 -0.8535,3.9121 1.043,-0.1231 2.0938,-0.2579 3.1446,-0.3799 z m 60.5468,-2.8614 c -0.8222,0.126 -1.6504,0.2491 -2.4756,0.3799 0.0342,0.0655 0.0655,0.123 0.0938,0.1913 0.8252,0.382 1.6543,0.7628 2.4814,1.1397 0.0372,-0.6317 0.1963,-1.4071 -0.0996,-1.7109 z m -7.1494,0.4766 c -0.9853,0.0264 -1.9648,0.0576 -2.9531,0.0947 0.0322,0.1309 0.0625,0.251 0.0928,0.382 3.1777,2.2881 6.3584,4.5703 9.5361,6.8642 0.0331,0 0.0635,0 0.0938,0 0.0352,-1.1924 0.7968,-4.165 0.1894,-4.8642 -1.6221,-1.6456 -3.6162,-2.5079 -6.959,-2.4767 z m 9.3477,0.5693 c -0.0342,0.6075 -0.0635,1.2071 -0.0938,1.8155 1.8721,1.0429 3.7451,2.0947 5.6221,3.1406 0.4482,-0.2539 0.8877,-0.5 1.3379,-0.7568 -0.0674,-0.0996 -0.1338,-0.1964 -0.1934,-0.2891 -2.2246,-1.3037 -4.4511,-2.6035 -6.6728,-3.9102 z m -186.5117,0.0987 c -0.6763,1.3496 -2.628,3.4277 -2.4839,4.958 2.2583,0.9814 4.5112,1.9726 6.7749,2.957 0,-0.3203 0,-0.6387 0,-0.9541 -0.5449,-1.1338 -3.4375,-6.5654 -4.291,-6.9609 z m 174.1123,0.8545 c -0.1553,3.7226 -0.3174,7.4384 -0.4766,11.1631 -0.1582,0.9931 -0.2539,3.8349 0.1875,4.1894 2.1836,1.2656 9.5918,-4.1084 10.9697,-5.6201 -0.0625,-0.0996 -0.125,-0.1982 -0.1933,-0.2871 -0.836,-0.3545 -1.8233,-1.1426 -2.1914,-2.0069 0.163,-0.331 0.6132,-0.7705 0.3828,-0.8554 -2.8946,-2.1944 -5.7871,-4.3906 -8.6787,-6.583 z m 11.9228,6.9609 c 2.583,0.0899 4.6074,-0.3613 5.3369,-2.0957 -0.0654,-0.0322 -0.1289,-0.0625 -0.1855,-0.0996 -0.9385,-0.9014 -3.4981,-2.3311 -4.8692,-2.5732 -0.0937,1.5888 -0.1914,3.1845 -0.2822,4.7685 z m -66.083,-3.626 c -0.9824,1.787 -1.9678,3.5616 -2.956,5.3448 0.0351,0 0.0634,0 0.0976,0 0.0606,-0.0313 0.126,-0.0655 0.1856,-0.0996 1.083,-1.585 2.1699,-3.1729 3.2431,-4.7676 -0.1074,-0.3096 -0.1308,-0.252 -0.2851,-0.4776 -0.0918,0 -0.1914,0 -0.2852,0 z m 73.8037,2.8614 c -0.2685,0.5341 -0.5029,0.7568 -0.666,1.5293 1.0488,-0.1563 2.0956,-0.3194 3.1494,-0.4766 -0.0332,-0.0654 -0.0654,-0.1309 -0.1025,-0.1885 -0.7881,-0.2881 -1.5821,-0.5762 -2.3809,-0.8642 z" />
    </g>
    <g
       transform="matrix(0.91811838,0.39630625,-0.39630625,0.91811838,447.11588,-66.367692)"
       id="e_x5F_gitarre">
      <path
         style="clip-rule:evenodd;fill-rule:evenodd"
         inkscape:connector-curvature="0"
         id="path25951"
         d="m 191.8701,341.917 c 0,0 0.3149,-2.7471 3.4624,-3.7334 0.751,-0.2344 3.8228,-1.667 6.3384,-1.5303 0.5947,0.0323 2.5278,0.3916 2.3398,2.6963 -0.102,1.3027 -2.5903,5.2041 -2.8759,5.8926 -0.6924,1.6748 -1.7564,3.2402 -1.2168,10.165 0.0981,1.2198 2.8877,10.5635 2.7002,16.0528 -0.063,1.8867 -0.8536,1.6631 -0.9903,1.8427 -0.1367,0.1797 -4.1352,1.7998 -5.1255,6.4795 -0.1137,0.543 -0.2695,1.6162 -0.2695,3.8653 0,0.4072 0.0776,0.4072 -0.0474,0.4619 l 2.5196,110.9287 c 0,0 0.1489,0.6562 0.4775,1.0791 0.3325,0.415 3.5449,4.0137 10.6421,1.917 1.2368,-0.3672 5.6538,-1.8731 7.8564,-10.4151 0.2032,-0.7861 0.4537,-4.3193 2.1128,-4.2294 0.6768,0.0351 4.5459,1.08 5.0391,9.7148 0.1377,2.4258 -0.7202,7.4658 -3.4194,13.2637 -0.8921,1.9258 -2.5586,6.9687 -2.876,9.081 -0.0742,0.5 -0.6924,4.0879 1.3501,8.8233 0.5478,1.2754 7.5986,15.0195 9.5776,22.3056 0.438,1.6182 1.605,6.6192 1.0645,11.6582 0,0 0.1015,1.166 -0.0474,1.7686 -0.1484,0.6025 -0.2417,0.751 -0.27,0.9307 -0.0269,0.1806 -0.4175,1.3154 -0.4175,1.3154 0,0 -0.0864,0.1494 0.0308,0.2979 0.1176,0.1553 0.2705,0.8448 0,1.2901 -0.27,0.4541 -0.5713,1.1982 -0.8101,1.3221 0,0 -0.0586,0.2666 -0.1797,0.3301 -0.1216,0.0625 -0.3916,0.085 -0.3916,0.085 l -0.2109,0.2744 c 0,0 -0.5947,1.1348 -0.7471,1.166 0,0 -4.0029,6.7607 -12.6382,9.46 -1.2519,0.3916 -8.1382,2.7469 -21.9882,2.9267 -0.587,0.008 -0.1524,0.2344 -0.1524,0.2344 l 0.3599,0.5723 c 0,0 0.1211,0.2656 -0.149,0.4765 -0.27,0.211 -1.1909,0.5557 -2.7563,0.1563 -1.0522,-0.2735 -0.4497,-0.751 -0.4497,-0.751 l 0.3872,-0.4844 c 0,0 0.3599,-0.3214 -0.0591,-0.2979 -0.418,0.0313 -10.6709,-0.1328 -18.8564,-3.2393 -2.0386,-0.7676 -17.3575,-6.206 -18.0777,-21.2695 -0.084,-1.752 -0.7197,-7.8633 6.1607,-22.0742 0.4477,-0.9307 4.9922,-11.0684 5.667,-13.9014 0.4829,-2.0342 1.2129,-6.5215 0,-11.0166 -0.0684,-0.251 -0.6983,-2.79 -2.0244,-6.7139 -1.7452,-5.1611 -3.8584,-12.0937 -4.3609,-16.3115 -0.1113,-0.8955 -1.3047,-10.4346 3.7759,-15.8262 0.9194,-0.9785 1.813,-1.1123 1.813,-1.1123 0,0 -0.0918,-0.3007 0.1489,-0.3593 0.2427,-0.0625 0.54,0.2392 0.4815,-0.1797 -0.0591,-0.419 -0.149,-1.0801 -0.149,-1.0801 0,0 -0.0625,-0.3906 0.2974,-0.3018 0.3599,0.0909 2.189,0.9903 2.3691,1.17 0.1802,0.1796 0.3326,0.3603 -0.059,0.4814 -0.3912,0.1211 -0.96,0.4814 -0.96,0.4814 0,0 -0.1196,0.1495 0.0312,0.2354 0.1485,0.0937 0.2974,0.2734 0.1485,0.3594 -0.1485,0.0947 -0.3897,0.0625 -0.3897,0.0625 0,0 -0.1186,0.0937 -0.0288,0.2431 0.0899,0.1485 0.2661,0.5635 0.2388,1.4073 -0.0293,0.8379 0.2695,5.2119 0.8096,7.3408 0.538,2.1318 2.7295,7.4336 6.0864,9.7148 1.2827,0.8682 3.8672,2.9385 7.7348,2.2803 1.4849,-0.2578 2.7291,-1.6191 2.8775,-2.0693 0.1509,-0.4502 0.54,-1.4981 0.54,-1.4981 l 0.3741,-1.0801 1.0522,-100.7871 -0.1685,-0.1797 c 0,0 -0.2421,-0.1562 0.0293,-0.6337 0.2115,-0.3682 0.1841,-4.1983 -2.934,-6.3545 -0.6006,-0.419 -0.9624,-1.1739 -0.6026,-2.3711 0.3579,-1.2002 0.9019,-3.1768 0.9019,-3.1768 0,0 0.0898,-0.2109 -0.2115,-0.3017 -0.3012,-0.0889 -1.2011,-0.3555 -1.2011,-0.3555 l -0.2075,0.1494 c 0,0 -0.5733,1.4668 -2.0406,1.0166 -0.5908,-0.1797 -1.498,-0.9277 -0.8994,-2.7852 0.0391,-0.1181 0.7197,-1.8037 2.2495,-1.2919 0.5869,0.1962 1.1094,0.5097 1.0777,1.832 -0.006,0.2109 -0.0269,0.2295 0.1977,0.3203 0.2251,0.0908 1.0567,0.293 1.1699,0.3135 0.1119,0.0224 0.1568,0.0224 0.2251,-0.2432 0.0664,-0.2744 1.3477,-4.2295 1.3711,-4.3418 0.0215,-0.1113 0.0899,-0.1816 -0.1347,-0.2715 -0.2251,-0.0898 -1.2364,-0.4023 -1.2364,-0.4023 l -0.1801,0.0664 c 0,0 -0.6988,1.4599 -2.1363,0.876 -0.7514,-0.3047 -1.3711,-0.8955 -0.8784,-2.5381 0.1646,-0.541 0.9234,-1.8477 2.2046,-1.3076 0.2373,0.1025 1.2368,0.2265 1.147,1.8476 0,0 0,0.1328 0.2031,0.2031 0.2017,0.0616 1.1465,0.3594 1.1465,0.3594 0,0 0.2251,-0.0234 0.2466,-0.1611 0.0215,-0.1367 1.3261,-4.542 1.3261,-4.542 0,0 0.045,-0.1328 -0.1567,-0.2227 -0.2031,-0.0898 -1.1694,-0.3838 -1.1694,-0.3838 0,0 -0.1138,-0.1367 -0.1568,0.0235 -0.0449,0.1562 -1.0132,1.5058 -2.2046,0.9668 -0.7846,-0.3565 -1.3032,-0.9473 -0.8315,-2.6524 0.1724,-0.622 1.1914,-1.8476 2.3159,-1.3691 0.2178,0.0859 1.1016,0.3555 1.1016,1.9082 0,0.291 -0.0235,0.2236 0.1802,0.291 0.2011,0.0703 0.8549,0.3594 1.125,0.335 0.2695,-0.0186 0.246,-0.2891 0.3149,-0.5352 0.0664,-0.247 1.1914,-4.0263 1.1914,-4.0263 0,0 0,-0.212 -0.27,-0.2461 -0.1797,-0.0235 -1.0352,-0.3174 -1.0352,-0.3174 0,0 -0.0898,-0.1084 -0.1562,0.0234 -0.0684,0.1328 -0.7437,1.3936 -1.71,1.1699 -0.4184,-0.0976 -2.0464,-0.2226 -1.4609,-2.5625 0.0971,-0.3945 0.7192,-2.0029 2.3154,-1.6435 0.4443,0.1015 1.1919,0.5644 1.147,1.9326 0,0 -0.0215,0.1797 0.1797,0.25 0.2021,0.0674 1.0112,0.3379 1.125,0.3135 0.1113,-0.0235 0.1801,-0.0235 0.27,-0.3135 0.0898,-0.293 1.2578,-4.248 1.2578,-4.248 0,0 0.1587,-0.2266 -0.0664,-0.294 -0.2251,-0.0664 -1.2598,-0.3603 -1.2598,-0.3603 0,0 -0.0903,-0.0899 -0.1567,0.0673 -0.0684,0.1563 -0.9214,1.5059 -1.8897,1.0791 -0.4243,-0.1875 -1.6181,-0.4492 -1.2817,-2.3623 0.0688,-0.3838 0.585,-2.0898 2.2036,-1.7968 0.3179,0.0556 1.2144,0.3603 1.2593,1.914 0.008,0.2432 0.0903,0.1992 0.2017,0.2656 0.1132,0.0704 1.1245,0.337 1.1245,0.337 0,0 0.1587,0.2031 0.2705,-0.2432 0.1133,-0.4541 1.3711,-4.3662 1.3496,-4.4522 -0.0239,-0.0937 0.1797,0 -0.2486,-0.1601 -0.4262,-0.1563 -1.2817,-0.4268 -1.3476,-0.3359 -0.0689,0.0888 -0.7202,1.5293 -1.98,1.1923 -0.6396,-0.1728 -1.4829,-0.7197 -1.0112,-2.833 0.0722,-0.3359 0.876,-1.956 2.271,-1.372 0.3149,0.1279 0.9897,0.3593 1.0346,1.913 0.004,0.25 0.022,0.1993 0.2022,0.2413 0.1797,0.0478 1.1245,0.3837 1.1245,0.3837 l 0.2915,0.048 z" />
    </g>
    <g
       transform="matrix(0.49883517,0.86669688,-0.86669688,0.49883517,670.79845,137.55861)"
       id="layer1-9"
       inkscape:label="Layer 1"
       style="fill:#008000">
      <path
         inkscape:connector-curvature="0"
         id="rect6342"
         d="m 238.7884,420.69458 c -2.49659,9.8847 3.50014,19.93354 13.38441,22.43027 0.39135,0.0988 0.77761,0.14585 1.16894,0.21835 4.85733,-8.31145 10.03704,-28.82604 9.161,-35.6261 -0.42677,-0.14146 -0.84126,-0.29508 -1.28409,-0.40689 -9.88471,-2.49658 -19.93284,3.49941 -22.43028,13.38442 z m 25.71371,-12.20467 c 1.43497,9.26834 -4.14434,25.5044 -8.27777,35.16449 4.22014,0.11025 8.26759,-1.23251 11.53028,-3.67422 0.005,-0.0104 0.033,-0.012 0.038,-0.0226 1.39114,-3.27057 2.74437,-7.37384 3.66647,-11.0413 0.92829,-3.69268 1.71644,-7.88061 1.9655,-11.45262 -1.79233,-3.8693 -4.90004,-7.10075 -8.92219,-8.97332 z m 5.22686,31.96767 c 22.54816,3.90825 60.49687,11.08531 82.97405,14.91916 1.33061,0.33604 3.15504,-2.30408 4.05513,-5.86754 0.9001,-3.56335 0.55622,-6.69919 -0.77444,-7.03533 -21.71539,-7.22019 -58.91707,-17.33442 -80.65314,-24.51755 -1.6e-4,0.0103 -0.007,0.0201 -0.007,0.0304 l 0.0534,0.0451 c -0.13709,1.31091 -0.31478,2.67356 -0.52956,4.05154 -0.003,0.0202 -0.0118,0.0405 -0.0147,0.0607 -0.38222,2.3862 -0.88338,4.82936 -1.51971,7.34866 -0.62675,2.48135 -1.35122,4.85368 -2.13555,7.10331 -0.006,0.008 -0.001,0.0227 -0.007,0.0304 -0.46535,1.32069 -0.93455,2.598 -1.4408,3.83119 z m 86.38211,13.58914 2.90028,0.637 c 1.30962,0.29341 2.61074,-0.52789 2.91907,-1.83406 l 1.00517,-4.29019 c 0.30862,-1.30611 -0.47104,-2.58059 -1.78065,-2.87401 l -2.77878,-0.60761 c 0.36054,3.04869 -0.55264,6.35999 -2.26509,8.96887 z"
         style="fill:#008000;stroke:none" />
    </g>
    <g
       transform="matrix(0.52816636,0,0,0.52816636,171.32467,351.69691)"
       inkscape:label="Camada 1"
       id="layer1-3">
      <path
         d="m 90.425103,765.73865 c -21.59,-19 -47.66,-36.28 -64.64,-57.15 -3.9328,-4.833 2.9565,-12.495 -0.42259,-19.142 -3.5501,-6.984 -7.4745,-17.313 -2.1884,-23.896 6.5637,-8.1732 0.19255,-13.289 -7.0221,-16.733 -8.3343004,-3.9779 -8.5558004,-33.303 -17.9130004,-20.945 -6.4151,7.4869 -28.1909996,33.856 -40.2689996,26.674 -9.4834,-9.3715 8.7739,-25.784 15.801,-31.947 5.9312,-5.2017 15.181,-12.731 13.099,-19.745 -0.82487,-2.7783 -3.2308,-6.0305 0.0594,-9.27 3.2901996,-3.2395 5.6905996,-2.3263 6.4556996,-4.9219 1.9872,-6.7412 8.8249,-6.038 11.961,-11.968 2.749,-5.1973 7.7258004,-8.4694 11.9230004,-11.699 5.0358,-3.8749 14.794,1.4014 16.374,-6.7651 1.453,-6.7714 5.1111,-10.785 11.932,-13.251 9.1183,-3.297 20.332,2.5363 20.975,12.684 0.4801,7.5855 -4.6905,16.292 -13.121,17.924 -4.9426,0.9572 -12.113,5.6935 -6.5316,11.526 6.1154,10.575 11.032,22.125 14.96,33.582 -0.0592,6.4485 0.15146,11.084 6.0376,13.712 4.8522,2.1665 4.6641,9.1767 11.14,11.602 8.0885,3.0287 13.291,11.261 19.251,17.579 2.611597,-21.424 14.702997,-40.186 19.776997,-60.928 2.9659,-9.9382 -4.6781,-18.82 -3.2454,-29.032 0.6992,-4.9838 -8.1825,-9.9428 -13.213,-10.458 -7.672797,-0.0662 -16.025997,2.3263 -22.961997,0.77525 -7.5641,-1.6916 -4.518,-14.032 -5.1762,-20.889 -4.7402,-4.6794 -3.1788,-10.689 -4.1095,-16.611 -2.5949,-5.2247 -6.0875,-3.9685 -11.302,-6.3154 -6.4615,-2.9085 -1.4377,-18.185 0.0891,-23.583 1.8641,-6.5911 -2.9173,-10.393 -3.7876,-16.173 -1.6727,-11.107 0.91225,-23.258 3.8927,-33.99 12.671,-28.715 43.975997,-45.116 69.187997,-40.657 55.353,10.581 63.113,59.096 47.991,105.72 3.5154,3.5784 4.2027,16.869 10.342,11.438 5.6277,-2.3227 9.2404,6.846 12.849,10.285 2.5778,6.2481 8.749,6.3104 14.277,9.3392 17.025,9.3275 36.24,23.521 47.577,35.456 11.337,11.935 17.63,18.95 23.538,34.24 5.9081,15.29 13.656,34.424 18.593,52.36 8.9962,32.68 17.001,67.087 19.61,100.94 -77.262,0.47619 -154.52,-0.24733 -231.789997,0.22886 l 3e-5,0 -2e-5,0 z"
         style="fill:#000000;stroke:#000000;stroke-width:1px"
         sodipodi:nodetypes="cssssccsszssscsssccssccscsccssscccccszzscccc"
         id="path2846"
         inkscape:connector-curvature="0" />
    </g>
    <g
       inkscape:label="Layer 1"
       id="g3615"
       transform="matrix(0.88927898,-0.45736517,0.45736517,0.88927898,-208.86198,173.40627)"
       style="fill:#008000">
      <path
         style="fill:#008000;stroke:none"
         d="m 311.65625,421.5 c -10.19459,-0.10347 -18.55254,8.08705 -18.65625,18.28125 -0.004,0.40359 0.041,0.7901 0.0625,1.1875 9.22024,2.76785 30.37757,2.98096 36.78125,0.53125 0.0372,-0.44806 0.0891,-0.88704 0.0937,-1.34375 0.10346,-10.19459 -8.08617,-18.55203 -18.28125,-18.65625 z m 17.90625,22.125 c -8.67146,3.57309 -25.76402,1.96599 -36.125,0.21875 0.8847,4.12783 3.14111,7.74632 6.28125,10.34375 0.0118,0.002 0.0194,0.0293 0.0313,0.0313 3.50592,0.5835 7.81229,0.93443 11.59375,0.96875 3.80741,0.0344 8.06326,-0.1838 11.59375,-0.78125 3.33967,-2.65152 5.7502,-6.43166 6.625,-10.78125 z m -29.84375,12.59375 c 1.50068,22.8351 3.44368,61.40763 5,84.15625 -0.0139,1.37231 2.98106,2.52514 6.65625,2.5625 3.67509,0.0374 6.64227,-1.03386 6.65625,-2.40625 1.91421,-22.80406 3.00167,-61.3408 4.875,-84.15625 -0.01,0.002 -0.0212,-0.002 -0.0313,0 l -0.0313,0.0625 c -1.30639,0.17486 -2.67264,0.32241 -4.0625,0.4375 -0.0203,0.002 -0.0421,-0.002 -0.0625,0 -2.4092,0.18931 -4.90171,0.2764 -7.5,0.25 -2.55915,-0.026 -5.03529,-0.17262 -7.40625,-0.40625 -0.009,-0.004 -0.0224,0.004 -0.0313,0 -1.39307,-0.1419 -2.74488,-0.29776 -4.0625,-0.5 z m 7.09375,87.15625 0.0625,2.96875 c 0.0226,1.34189 1.12669,2.41354 2.46875,2.40625 l 4.40625,-0.0313 c 1.34206,-0.007 2.39761,-1.06436 2.375,-2.40625 l -0.0625,-2.84375 c -2.87855,1.06697 -6.31172,0.95762 -9.25,-0.0937 z"
         id="path3617"
         inkscape:connector-curvature="0" />
    </g>
    <g
       transform="matrix(0.69645892,0.71759667,-0.71759667,0.69645892,235.48403,116.69802)"
       id="g3619"
       inkscape:label="Layer 1"
       style="fill:#008000">
      <path
         inkscape:connector-curvature="0"
         id="path3621"
         d="m 311.65625,421.5 c -10.19459,-0.10347 -18.55254,8.08705 -18.65625,18.28125 -0.004,0.40359 0.041,0.7901 0.0625,1.1875 9.22024,2.76785 30.37757,2.98096 36.78125,0.53125 0.0372,-0.44806 0.0891,-0.88704 0.0937,-1.34375 0.10346,-10.19459 -8.08617,-18.55203 -18.28125,-18.65625 z m 17.90625,22.125 c -8.67146,3.57309 -25.76402,1.96599 -36.125,0.21875 0.8847,4.12783 3.14111,7.74632 6.28125,10.34375 0.0118,0.002 0.0194,0.0293 0.0313,0.0313 3.50592,0.5835 7.81229,0.93443 11.59375,0.96875 3.80741,0.0344 8.06326,-0.1838 11.59375,-0.78125 3.33967,-2.65152 5.7502,-6.43166 6.625,-10.78125 z m -29.84375,12.59375 c 1.50068,22.8351 3.44368,61.40763 5,84.15625 -0.0139,1.37231 2.98106,2.52514 6.65625,2.5625 3.67509,0.0374 6.64227,-1.03386 6.65625,-2.40625 1.91421,-22.80406 3.00167,-61.3408 4.875,-84.15625 -0.01,0.002 -0.0212,-0.002 -0.0313,0 l -0.0313,0.0625 c -1.30639,0.17486 -2.67264,0.32241 -4.0625,0.4375 -0.0203,0.002 -0.0421,-0.002 -0.0625,0 -2.4092,0.18931 -4.90171,0.2764 -7.5,0.25 -2.55915,-0.026 -5.03529,-0.17262 -7.40625,-0.40625 -0.009,-0.004 -0.0224,0.004 -0.0313,0 -1.39307,-0.1419 -2.74488,-0.29776 -4.0625,-0.5 z m 7.09375,87.15625 0.0625,2.96875 c 0.0226,1.34189 1.12669,2.41354 2.46875,2.40625 l 4.40625,-0.0313 c 1.34206,-0.007 2.39761,-1.06436 2.375,-2.40625 l -0.0625,-2.84375 c -2.87855,1.06697 -6.31172,0.95762 -9.25,-0.0937 z"
         style="fill:#008000;stroke:none" />
    </g>
    <path
       style="fill:#e6e6e6;stroke:#000000;stroke-width:1.5455091;stroke-miterlimit:20;stroke-dasharray:none;stroke-opacity:1;opacity:0.9"
       d="M 27.470703 32.773438 L 27.470703 231.43359 L 85.134766 231.43359 L 98.572266 353.02734 L 134.37305 231.43359 L 471.13867 231.43359 L 471.13867 32.773438 L 27.470703 32.773438 z "
       transform="translate(1.350736,308.12072)"
       id="rect3842" />
    <path
       style="fill:none;fill-rule:evenodd;stroke:#000000;stroke-width:3;stroke-linecap:butt;stroke-linejoin:miter;stroke-opacity:1;stroke-miterlimit:4;stroke-dasharray:none;marker-start:url(#Arrow1Mstart);marker-end:url(#Arrow1Mend)"
       d="m 57.065022,362.57579 0,150 382.142858,0"
       id="path4651"
       inkscape:connector-curvature="0" />
    <path
       id="path6757"
       clip-path="url(#clipPath6)"
       title="sin(x) + cos(2*x)"
       d=" M 87.065025 395.279865346 C 102.133051667 369.316865625 117.201078333 411.012792386 132.269105 393.611348989 C 147.337131667 376.209905591 162.405158333 520.684305068 177.473185 453.569710038 C 192.541211667 386.455115008 207.609238333 438.961418242 222.677265 422.210650095 C 237.745291667 405.459881948 252.813318333 450.294367732 267.881345 478.915644807 C 282.949371667 507.536921882 298.017398333 373.469309821 313.085425 408.09583497 C 328.153451667 442.722360119 343.221478333 354.584275771 358.289505 418.847445755 C 373.357531667 483.110615739 388.425558333 421.524030979 403.493585 395.279865346"
       style="opacity:0.9;fill:none;fill-opacity:1;stroke:#008000;stroke-width:3;stroke-miterlimit:4;stroke-dasharray:none;stroke-opacity:1;filter:url(#filter6849)" />
  </g>
</svg>
